<ttFont>
<head>
    <!-- Most of this table will be recalculated by the compiler -->
    <tableVersion value="1.0"/>
    <fontRevision value="0.0"/>
    <checkSumAdjustment value="0xa9a69bbe"/>
    <magicNumber value="0x5f0f3cf5"/>
    <flags value="00000000 00000011"/>
    <unitsPerEm value="2048"/>
    <created value="Thu May  4 15:31:11 2017"/>
    <modified value="Thu May  4 22:31:15 2017"/>
    <xMin value="-240"/>
    <yMin value="-840"/>
    <xMax value="1506"/>
    <yMax value="2348"/>
<macStyle value="00000000 00000000"/>
    <lowestRecPPEM value="3"/>
    <fontDirectionHint value="2"/>
    <indexToLocFormat value="0"/>
    <glyphDataFormat value="0"/>
  </head>
          <CharString index="0">
            93 77 76 94 94 -77 76 -93 -35 callgsubr
            hvcurveto
            return
          </CharString>
          <CharString index="1">
            633 -26 rmoveto
            330 206 190 305 hvcurveto
            -21 callgsubr
            -175 vlineto
            -67 callgsubr
            vhcurveto
            898 vmoveto
            117 73 -92 -145 hvcurveto
            -157 vlineto
            -145 -73 -92 -117 -117 -73 92 145 vhcurveto
            157 vlineto
            145 73 92 117 vhcurveto
            return
          </CharString>
          <CharString index="2">
            101 82 82 101 101 -82 82 -101 -101 -82 -82 -101 -101 82 -82 101 hvcurveto
            return
          </CharString>
          <CharString index="3">
            rmoveto
            75 51 -135 141 hhcurveto
            164 114 139 198 hvcurveto
            -219 hlineto
            -75 -1 -30 -49 -46 -75 -51 135 -141 hhcurveto
            -163 -115 -141 -202 hvcurveto
            219 hlineto
            77 1 31 53 45 hhcurveto
            return
          </CharString>
          <CharString index="4">
            rmoveto
            -353 -636 hlineto
            -133 -68 -81 -111 -115 -55 68 142 vhcurveto
            640 -354 -719 vlineto
            -274 130 -146 242 154 116 75 132 51 75 callgsubr
            hlineto
            return
          </CharString>
          <CharString index="5">
            290 -405 rmoveto
            322 160 113 294 94 hvcurveto
            358 1111 rlineto
            -374 hlineto
            -199 -816 rlineto
            -19 hlineto
            -199 816 30 callsubr
            380 -1122 -5 -31 rlineto
            -65 -12 -64 -32 -118 hhcurveto
            -15 -44 1 1 -3 hvcurveto
            -269 vlineto
            -1 3 62 0 64 hhcurveto
            return
          </CharString>
          <CharString index="6">
            633 280 rmoveto
            -125 -66 89 168 hvcurveto
            906 -367 -926 vlineto
            -345 205 -201 353 353 205 201 345 vhcurveto
            926 -367 -906 vlineto
            -168 -66 -89 -125 vhcurveto
            return
          </CharString>
          <CharString index="7">
            rmoveto
            -587 295 550 270 -550 288 587 295 -954 55 callsubr
            return
          </CharString>
          <CharString index="8">
            rmoveto
            -51 vlineto
            -111 -75 -71 -116 -81 -52 40 63 69 54 39 109 9 vhcurveto
            175 -326 rmoveto
            -27 callsubr
            vlineto
            249 -168 138 -305 -291 -193 -134 -216 -20 vhcurveto
            343 hlineto
            55 18 58 35 73 hhcurveto
            84 53 -45 -71 hvcurveto
            -83 vlineto
            -228 -17 rlineto
            -290 -22 -151 -118 -203 vvcurveto
            -201 141 -136 209 134 113 58 97 56 vhcurveto
            endchar
          </CharString>
          <CharString index="9">
            77 34 -15 -35 -33 -35 -16 -68 -42 -49 6 8 -18 hvcurveto
            -154 vlineto
            -8 33 55 -8 56 hhcurveto
            181 98 76 138 112 -61 65 -115 11 hvcurveto
            return
          </CharString>
          <CharString index="10">
            rmoveto
            -135 -69 -78 -118 -138 -69 95 189 121 callgsubr
            188 68 96 133 109 75 -83 -130 7 vhcurveto
            373 hlineto
            323 -8 -210 197 -334 hhcurveto
            -369 -217 -218 -373 hvcurveto
            -319 vlineto
            -373 217 -218 369 339 215 201 319 vhcurveto
            296 -593 -252 220 vlineto
            return
          </CharString>
          <CharString index="11">
            rmoveto
            -59 -12 -76 -44 -89 hhcurveto
            -111 -75 74 110 hvcurveto
            69 691 180 vlineto
            286 -204 195 -299 -319 -213 -194 -291 vhcurveto
            -184 vlineto
            -316 193 -180 339 277 213 150 204 15 vhcurveto
            -693 353 rmoveto
            129 67 78 113 109 65 -78 -129 vhcurveto
            endchar
          </CharString>
          <CharString index="12">
            -409 -51 callgsubr
            rlineto
            -71 callsubr
            return
          </CharString>
          <CharString index="13">
            353 636 hlineto
            133 68 81 111 115 55 -68 -142 vhcurveto
            -640 354 719 vlineto
            274 -130 146 -242 -154 -116 -75 -132 -51 vhcurveto
            -19 181 -344 hlineto
            return
          </CharString>
          <CharString index="14">
            1935 rmoveto
            -298 hlineto
            -132 -190 rlineto
            -20 hlineto
            -132 190 56 callsubr
            275 -350 rlineto
            330 hlineto
            return
          </CharString>
          <CharString index="15">
            1296 rmoveto
            292 19 callsubr
            -243 -362 rlineto
            return
          </CharString>
          <CharString index="16">
            rmoveto
            147 110 115 201 hvcurveto
            -208 hlineto
            -86 -4 -33 -29 -46 -85 -44 127 -165 hhcurveto
            -147 -110 -115 -205 hvcurveto
            209 hlineto
            86 3 32 33 47 90 42 -127 162 hhcurveto
            return
          </CharString>
          <CharString index="17">
            rmoveto
            105 -824 120 callsubr
            206 -51 callgsubr
            119 callgsubr
            -36 -450 -33 -552 rlineto
            -20 hlineto
            -82 672 rlineto
            -268 hlineto
            -82 -672 rlineto
            -20 hlineto
            -33 552 -36 450 119 callgsubr
            206 -64 callsubr
            120 callsubr
            105 824 rlineto
            return
          </CharString>
          <CharString index="18">
            295 -304 853 304 295 -974 -295 304 -853 -304 -295 vlineto
            return
          </CharString>
          <CharString index="19">
            480 1166 rmoveto
            135 hlineto
            134 82 -76 -122 -125 -83 -79 -132 hvcurveto
            -136 hlineto
            109 -259 rmoveto
            243 -505 109 callsubr
            -284 559 rlineto
            151 66 95 157 185 vvcurveto
            298 -202 178 -337 vhcurveto
            -554 28 callsubr
            505 hlineto
            return
          </CharString>
          <CharString index="20">
            1266 1113 -84 callsubr
            return
          </CharString>
          <CharString index="21">
            186 69 98 131 118 74 -101 -161 vhcurveto
            373 hlineto
            362 -203 207 -354 -371 -220 -220 -371 vhcurveto
            -319 vlineto
            return
          </CharString>
          <CharString index="22">
            353 631 hlineto
            -78 callsubr
            -19 602 -346 hlineto
            return
          </CharString>
          <CharString index="23">
            rmoveto
            -335 hlineto
            -35 -719 rlineto
            -48 hlineto
            -76 714 rlineto
            -278 hlineto
            -76 -714 rlineto
            -48 hlineto
            -36 719 rlineto
            -334 hlineto
            211 -1113 rlineto
            295 hlineto
            123 677 rlineto
            8 hlineto
            123 -677 rlineto
            295 hlineto
            return
          </CharString>
          <CharString index="24">
            rmoveto
            298 -24 -167 145 -321 hhcurveto
            -348 -185 -185 -350 hvcurveto
            -100 vlineto
            -350 185 -185 348 320 170 143 287 22 84 callsubr
            -114 -17 -46 -44 -104 hhcurveto
            -115 -63 100 183 hvcurveto
            60 vlineto
            183 63 100 115 103 49 -49 -122 15 vhcurveto
            return
          </CharString>
          <CharString index="25">
            rmoveto
            -162 vlineto
            -46 -27 -25 -47 vhcurveto
            -241 -640 hlineto
            -135 -54 -75 -98 -98 -54 75 135 vhcurveto
            640 -349 -719 vlineto
            -284 112 -136 235 146 96 67 140 54 75 callgsubr
            885 hlineto
            146 4 85 83 140 vvcurveto
            234 vlineto
            endchar
          </CharString>
          <CharString index="26">
            rmoveto
            -72 callsubr
            hvcurveto
            213 vlineto
            172 -22 103 -55 82 vhcurveto
            18 62 vlineto
            142 78 80 144 hvcurveto
            251 -269 -174 vlineto
            -58 -37 -30 -71 vhcurveto
            -182 -35 56 -186 94 callgsubr
            -403 215 -241 360 vhcurveto
            304 vmoveto
            -139 -63 108 236 hvcurveto
            205 vlineto
            236 63 108 139 139 63 -108 -236 vhcurveto
            -205 vlineto
            -236 -63 -108 -139 vhcurveto
            return
          </CharString>
          <CharString index="27">
            rmoveto
            -78 callgsubr
          </CharString>
          <CharString index="28">
            rmoveto
            98 58 -168 -299 -299 -58 -168 -98 -98 -58 168 299 299 58 168 98 hvcurveto
            -500 -311 rmoveto
            566 -281 -64 callsubr
            281 582 72 vlineto
            -411 26 142 -199 252 hhcurveto
            296 160 257 493 493 -160 257 -296 -247 -142 -195 -400 -31 hvcurveto
            endchar
          </CharString>
          <CharString index="29">
            133 72 82 116 116 59 -71 -140 vhcurveto
            -635 353 715 vlineto
            270 -134 149 -242 -158 -121 -76 -130 -49 vhcurveto
            return
          </CharString>
          <CharString index="30">
            264 -313 849 -652 -264 311 -585 -340 -264 vlineto
            return
          </CharString>
          <CharString index="31">
            -35 callgsubr
            93 77 76 94 94 -77 76 -93 hvcurveto
            return
          </CharString>
          <CharString index="32">
            rmoveto
            -123 -11 -70 -77 -107 hhcurveto
            -107 -70 77 123 -11 hvcurveto
            230 vmoveto
            124 11 70 77 107 hhcurveto
            107 70 -77 -124 11 hvcurveto
            -724 -202 rmoveto
            -67 callgsubr
            -75 callgsubr
            vhcurveto
            -21 callgsubr
            endchar
          </CharString>
          <CharString index="33">
            870 19 vlineto
            404 -870 rlineto
            316 -51 callgsubr
            -311 -862 -19 hlineto
            -404 862 rlineto
            -316 33 callsubr
            return
          </CharString>
          <CharString index="34">
            rmoveto
            14 callsubr
            -471 vlineto
            -273 108 -91 322 vhcurveto
            283 259 -252 hlineto
            -68 -40 37 62 hvcurveto
            477 380 51 callsubr
            vlineto
            return
          </CharString>
          <CharString index="35">
            360 215 241 403 return
          </CharString>
          <CharString index="36">
            -449 hlineto
            -408 -64 callsubr
            rlineto
            364 hlineto
            return
          </CharString>
          <CharString index="37">
            rmoveto
            -340 hlineto
            -269 -275 rlineto
            298 hlineto
            130 146 rlineto
            22 hlineto
            130 -146 rlineto
            298 hlineto
            return
          </CharString>
          <CharString index="38">
            797 -17 rmoveto
            254 138 170 313 hvcurveto
            183 vlineto
            313 -138 170 -254 -160 -106 -78 -140 -29 vhcurveto
            -22 616 -371 -1530 369 204 22 hlineto
            -142 25 106 -79 166 hhcurveto
            -148 287 rmoveto
            8 callgsubr
            hvcurveto
            198 vlineto
            -31 callgsubr
            -198 vlineto
            12 callsubr
            vhcurveto
            return
          </CharString>
          <CharString index="39">
            101 30 61 81 104 vvcurveto
            208 -174 116 -314 -305 -169 -132 -253 -22 vhcurveto
            330 hlineto
            89 14 47 35 107 hhcurveto
            89 53 -39 -65 -64 -49 -34 -93 hvcurveto
            -158 -217 170 hlineto
            107 54 -35 -68 -71 -60 -42 -102 -113 -52 37 101 -30 hvcurveto
            -333 hlineto
            return
          </CharString>
          <CharString index="40">
            rmoveto
            343 185 191 355 hvcurveto
            698 10 vlineto
            151 89 84 143 hvcurveto
            266 -269 -194 vlineto
            -43 -33 -28 -51 vhcurveto
            -264 -936 hlineto
            -150 -55 -77 -106 -106 -55 77 150 vhcurveto
            936 -367 -926 vlineto
            -355 185 -191 343 vhcurveto
            endchar
          </CharString>
          <CharString index="41">
            rmoveto
            -503 362 -51 callgsubr
            -573 vlineto
            -320 -200 -184 -295 -187 99 -155 163 -67 hvcurveto
            -320 -555 rlineto
            395 hlineto
            272 503 rlineto
            -52 257 rmoveto
            -112 -71 78 125 125 71 78 112 hvcurveto
            174 -406 hlineto
            endchar
          </CharString>
          <CharString index="42">
            rmoveto
            84 45 -128 162 hhcurveto
            158 101 122 191 hvcurveto
            -210 hlineto
            -80 -3 -27 -38 -54 -84 -45 127 -162 hhcurveto
            -158 -101 -124 -194 hvcurveto
            210 hlineto
            82 3 28 42 53 hhcurveto
            -49 -199 rmoveto
            -17 callgsubr
          </CharString>
          <CharString index="43">
            -1443 return
          </CharString>
          <CharString index="44">
            227 139 153 250 250 -139 153 -227 hvcurveto
            -105 307 -294 -1113 hlineto
            289 262 rmoveto
            286 93 vlineto
            58 34 -53 -90 -90 -34 -53 -58 hvcurveto
            764 -262 rmoveto
            1113 -309 -1113 vlineto
            endchar
          </CharString>
          <CharString index="45">
            rmoveto
            178 hlineto
            129 73 -58 -102 -108 -74 -65 -125 -131 -81 64 109 -6 hvcurveto
            -348 hlineto
            -282 12 218 -180 330 hhcurveto
            344 237 179 259 185 -118 128 -186 19 hvcurveto
            19 vlineto
            152 30 103 131 160 vvcurveto
            235 -209 156 -315 -331 -209 -176 -281 -4 vhcurveto
            333 hlineto
            113 3 78 71 120 hhcurveto
            118 73 -63 -103 -103 -73 -63 -118 hvcurveto
            -173 hlineto
            return
          </CharString>
          <CharString index="46">
            rmoveto
            -367 -926 hlineto
            -345 205 -201 353 353 205 201 345 vhcurveto
            926 -367 -906 vlineto
            -168 -66 -89 -125 -125 -66 89 168 vhcurveto
            endchar
          </CharString>
          <CharString index="47">
            0 vmoveto
            363 hlineto
            250 457 rlineto
            17 hlineto
            252 -457 rlineto
            384 hlineto
            -422 724 422 719 rlineto
            -380 hlineto
            -235 -478 rlineto
            -18 hlineto
            -235 478 rlineto
            -398 hlineto
            405 -715 rlineto
            return
          </CharString>
          <CharString index="48">
            1175 118 callsubr
            -358 -566 -368 566 -358 -64 callsubr
            358 582 368 -582 vlineto
            return
          </CharString>
          <CharString index="49">
            627 -28 rmoveto
            419 160 297 378 hvcurveto
            164 vlineto
            384 -184 277 -400 -381 -151 -276 -231 -26 vhcurveto
            375 hlineto
            102 9 57 99 127 hhcurveto
            138 66 -112 -225 hvcurveto
            -22 -766 vlineto
            0 -9 -83 -115 vvcurveto
            -368 180 -269 386 vhcurveto
            -4 304 rmoveto
            -140 -49 123 115 hvcurveto
            23 396 -22 vlineto
            -134 -64 -105 -143 vhcurveto
            return
          </CharString>
          <CharString index="50">
            1046 295 -601 19 hlineto
            580 896 rlineto
            233 -1014 -295 569 -19 vlineto
            -580 -896 rlineto
            return
          </CharString>
          <CharString index="51">
            1659 rmoveto
            -291 hlineto
            205 -363 rlineto
            260 hlineto
            -627 363 rmoveto
            -291 hlineto
            205 -363 rlineto
            261 hlineto
            return
          </CharString>
          <CharString index="52">
            rmoveto
            192 350 rlineto
            -350 hlineto
            -148 -350 rlineto
            endchar
          </CharString>
          <CharString index="53">
            rmoveto
            -243 19 callsubr
            292 -362 rlineto
            return
          </CharString>
          <CharString index="54">
            rmoveto
            51 -157 28 -183 -190 vvcurveto
            -223 -53 -97 -142 -118 -56 77 177 vhcurveto
            596 -331 -645 vlineto
            -326 173 -168 337 348 188 219 419 174 -33 208 -56 119 vhcurveto
            endchar
          </CharString>
          <CharString index="55">
            765 -92 callsubr
            783 -183 rmoveto
            -374 hlineto
            -199 -816 rlineto
            -19 hlineto
            -199 816 30 callsubr
            380 -1122 -5 -31 rlineto
            -65 -12 -64 -32 -118 hhcurveto
            -15 -44 1 1 -3 hvcurveto
            -269 vlineto
            -1 3 62 0 64 hhcurveto
            322 160 113 294 94 hvcurveto
            endchar
          </CharString>
          <CharString index="56">
            rmoveto
            278 hlineto
            102 394 rlineto
            -370 hlineto
            -244 -394 rmoveto
            86 72 70 88 87 -72 71 -86 -87 -71 -71 -87 -88 71 -70 87 hvcurveto
            808 hmoveto
            87 71 70 88 87 -71 71 -87 -86 -72 -71 -87 -88 72 -70 86 hvcurveto
            endchar
          </CharString>
          <CharString index="57">
            rmoveto
            -64 callsubr
            310 vlineto
            417 852 rlineto
            19 -852 312 -51 callgsubr
            -310 hlineto
            -417 -860 rlineto
            -19 860 hlineto
            endchar
          </CharString>
          <CharString index="58">
            -70 callsubr
            -285 334 rmoveto
            146 103 105 192 hvcurveto
            -193 hlineto
            -77 -3 -34 -32 -45 -91 -35 121 -156 hhcurveto
            -146 -103 -104 -189 hvcurveto
            193 hlineto
            69 3 32 36 47 91 35 -121 156 hhcurveto
            endchar
          </CharString>
          <CharString index="59">
            -20 callsubr
            hmoveto
            -76 callsubr
            635 129 -92 callgsubr
            return
          </CharString>
          <CharString index="60">
            816 hmoveto
            1148 396 295 -1158 -295 396 -1148 return
          </CharString>
          <CharString index="61">
            1620 -99 callgsubr
            return
          </CharString>
          <CharString index="62">
            rmoveto
            -192 351 rlineto
            -309 hlineto
            239 -351 rlineto
            -489 hmoveto
            -17 callgsubr
          </CharString>
          <CharString index="63">
            rmoveto
            -142 -60 113 231 hvcurveto
            205 vlineto
            231 60 113 142 142 60 -113 -231 vhcurveto
            -205 vlineto
            -231 -60 -113 -142 vhcurveto
            176 -744 rmoveto
            63 74 11 16 39 hvcurveto
            176 vlineto
            -5 -14 -33 -4 -34 hhcurveto
            -69 -50 43 60 67 39 53 119 93 hvcurveto
            192 152 73 173 249 vvcurveto
            213 vlineto
            399 -212 245 -363 -363 -212 -245 -399 vhcurveto
            -213 vlineto
            -381 206 -259 317 47 42 5 8 19 vhcurveto
            -19 vlineto
            -107 -71 -44 -66 -88 vvcurveto
            -128 108 -85 163 vhcurveto
            endchar
          </CharString>
          <CharString index="64">
            1506 344 rmoveto
            432 return
          </CharString>
          <CharString index="65">
            1922 rmoveto
            -3 callgsubr
            316 hlineto
            return
          </CharString>
          <CharString index="66">
            rmoveto
            -145 -73 -92 -117 -53 -44 19 34 -32 vhcurveto
            317 384 rlineto
            1 -14 1 -14 -15 vvcurveto
            -380 hmoveto
            145 73 92 117 53 44 -19 -34 32 vhcurveto
            -317 -384 rlineto
            -1 14 -1 14 15 vvcurveto
            736 635 rmoveto
            -175 hlineto
            -46 -56 rlineto
            53 -86 -110 29 -129 94 callsubr
            -132 38 -110 71 -83 vhcurveto
            -119 -144 rlineto
            175 hlineto
            46 56 rlineto
            -53 86 110 -29 129 hhcurveto
            105 callsubr
            132 -38 110 -71 83 vhcurveto
            endchar
          </CharString>
          <CharString index="67">
            rmoveto
            243 -505 109 callsubr
            -284 559 rlineto
            151 66 95 157 185 vvcurveto
            298 -202 178 -337 vhcurveto
            -554 28 callsubr
            505 hlineto
            661 vmoveto
            135 hlineto
            134 82 -76 -122 -125 -83 -79 -132 hvcurveto
            -136 hlineto
            endchar
          </CharString>
          <CharString index="68">
            905 -2 rmoveto
            81 76 9 8 48 hvcurveto
            249 vlineto
            -3 -35 -59 -4 -39 hhcurveto
            -131 -37 34 93 hvcurveto
            729 -664 -263 311 -492 vlineto
            -281 121 -79 328 vhcurveto
            return
          </CharString>
          <CharString index="69">
            396 477 rlineto
            -396 hlineto
            -316 -416 rlineto
            -19 833 -353 -1530 353 return
          </CharString>
          <CharString index="70">
            -158 114 -120 152 72 66 27 45 38 vhcurveto
            16 hlineto
            -31 -107 -122 -91 -132 -15 rrcurveto
            -115 vlineto
            113 4 131 59 78 83 rrcurveto
            80 81 43 111 126 vvcurveto
            216 -131 145 -195 -170 -122 -121 -170 vhcurveto
            return
          </CharString>
          <CharString index="71">
            vmoveto
            -32 callgsubr
          </CharString>
          <CharString index="72">
            -183 rmoveto
            -345 -199 -22 hlineto
            130 -27 -127 88 -162 hhcurveto
            -272 -146 -169 -314 hvcurveto
            -150 vlineto
            -310 142 -173 256 169 134 91 130 24 vhcurveto
            22 -245 hlineto
            -117 -68 -59 -134 -104 -72 37 61 -15 vhcurveto
            -344 hlineto
            -206 15 202 -127 313 hhcurveto
            344 217 163 258 hvcurveto
            -738 660 rmoveto
            120 72 74 116 116 72 -74 -120 113 callsubr
            -120 -72 -74 -116 -116 -72 74 120 vhcurveto
            endchar
          </CharString>
          <CharString index="73">
            1161 303 rmoveto
            -593 1140 -361 55 callsubr
            return
          </CharString>
          <CharString index="74">
            277 692 rmoveto
            145 21 49 80 80 21 -49 -145 vhcurveto
            -268 vlineto
            -145 -21 -49 -80 -80 -21 49 145 vhcurveto
            221 -220 rmoveto
            -204 229 1530 -231 -616 -22 vlineto
            173 -34 -43 45 -129 hhcurveto
            -176 -62 -111 -312 hvcurveto
            -303 vlineto
            -308 70 -115 188 119 37 43 178 32 vhcurveto
            291 -204 rmoveto
            499 216 -248 19 hlineto
            236 661 rlineto
            217 -495 -216 248 -19 vlineto
            -240 -689 rlineto
            return
          </CharString>
          <CharString index="75">
            319 -30 callsubr
            return
          </CharString>
          <CharString index="76">
            819 593 rmoveto
            274 -173 vlineto
            -118 -73 63 103 103 73 63 118 120 78 -71 -113 3 hvcurveto
            333 hlineto
            281 -4 -209 176 -331 hhcurveto
            -315 -209 -156 -235 -160 103 -131 152 -30 hvcurveto
            -19 vlineto
            -186 -19 -118 -128 -185 vvcurveto
            -259 237 -179 344 330 218 180 282 12 vhcurveto
            -348 hlineto
            -109 -6 -81 -64 -131 hhcurveto
            -125 -74 65 108 102 73 58 129 hvcurveto
            return
          </CharString>
          <CharString index="77">
            vlineto
            -86 callsubr
            return
          </CharString>
          <CharString index="78">
            rmoveto
            123 61 71 107 107 61 -71 -123 vhcurveto
            -198 vlineto
            -123 -61 -71 -107 -107 -61 119 callsubr
            822 -206 rmoveto
            -4 -14 -31 -5 -16 hhcurveto
            -59 -26 30 84 hvcurveto
            750 -335 -179 -22 vlineto
            138 -40 -90 58 -148 hhcurveto
            -247 -134 -171 -310 hvcurveto
            -183 vlineto
            -306 141 -179 244 162 92 66 137 42 vhcurveto
            22 hlineto
            -134 24 109 -60 156 hhcurveto
            63 77 9 11 30 hvcurveto
            endchar
          </CharString>
          <CharString index="79">
            1587 -48 callsubr
            return
          </CharString>
          <CharString index="80">
            -138 334 752 return
          </CharString>
          <CharString index="81">
            627 -26 rmoveto
            323 183 142 265 22 hvcurveto
            -333 hlineto
            -101 -30 -52 -37 -113 hhcurveto
            -102 -60 42 71 68 54 35 107 hvcurveto
            170 217 -158 hlineto
            -93 -49 34 64 65 53 39 89 107 47 -35 -89 14 hvcurveto
            330 hlineto
            253 -22 -169 132 -305 hhcurveto
            -314 -174 -116 -208 -104 61 -81 101 -30 hvcurveto
            -19 vlineto
            -131 -36 -72 -87 -122 vvcurveto
            -225 195 -137 321 vhcurveto
            return
          </CharString>
          <CharString index="82">
            rmoveto
            -101 -82 -82 -101 -101 82 -82 101 101 82 82 101 101 -82 82 -101 hvcurveto
            return
          </CharString>
          <CharString index="83">
            593 -29 rmoveto
            333 194 185 319 hvcurveto
            968 -902 -295 535 -670 vlineto
            -128 -58 -68 -108 -105 -68 72 114 -1 vhcurveto
            -352 hlineto
            -305 205 -192 327 vhcurveto
            return
          </CharString>
          <CharString index="84">
            -43 callsubr
            -753 100 callgsubr
            return
          </CharString>
          <CharString index="85">
            -175 vlineto
            -67 callgsubr
            -75 callgsubr
            vhcurveto
            return
          </CharString>
          <CharString index="86">
            213 vlineto
            403 -215 241 -360 -360 -215 -241 -403 vhcurveto
            return
          </CharString>
          <CharString index="87">
            rmoveto
            -76 callsubr
            -506 return
          </CharString>
          <CharString index="88">
            648 -27 rmoveto
            322 182 145 278 26 hvcurveto
            -325 hlineto
            -102 -18 -62 -48 -115 hhcurveto
            -139 -60 61 151 -11 hvcurveto
            359 217 -356 hlineto
            137 14 59 55 134 hhcurveto
            111 62 -48 -103 21 hvcurveto
            324 hlineto
            275 -27 -185 148 -316 hhcurveto
            -366 -185 -196 -387 -387 185 -196 366 hvcurveto
            return
          </CharString>
          <CharString index="89">
            608 929 rmoveto
            134 50 105 113 109 38 -123 -115 vhcurveto
            -13 -310 vlineto
            -5 -290 rmoveto
            615 hlineto
            0 8 87 121 vvcurveto
            368 -146 269 -313 -305 -136 -238 -322 -25 vhcurveto
            -45 3 -22 42 51 vvcurveto
            59 23 51 0 vhcurveto
            -228 hlineto
            0 -29 -57 -108 vvcurveto
            -185 105 -133 192 -3 vhcurveto
            return
          </CharString>
          <CharString index="90">
            62 callsubr
            -34 -214 rmoveto
            40 hlineto
            75 17 -110 -387 -414 -15 -104 -77 hvcurveto
            -40 hlineto
            439 -214 rmoveto
            574 216 -293 19 hlineto
            276 661 rlineto
            217 -545 -216 293 -19 vlineto
            -305 -689 rlineto
            endchar
          </CharString>
          <CharString index="91">
            -595 -15 callsubr
          </CharString>
          <CharString index="92">
            -83 callsubr
            endchar
          </CharString>
          <CharString index="93">
            1932 rmoveto
            -99 -3 -70 -62 -109 hhcurveto
            -109 -70 62 99 -3 hvcurveto
            -236 hlineto
            -207 160 -144 258 258 160 144 207 vhcurveto
            return
          </CharString>
          <CharString index="94">
            600 -11 callsubr
            return
          </CharString>
          <CharString index="95">
            rmoveto
            -8 callgsubr
          </CharString>
          <CharString index="96">
            rmoveto
            -68 callsubr
            return
          </CharString>
          <CharString index="97">
            338 hmoveto
            587 -285 320 547 -149 851 -861 hlineto
            -4 -111 -5 -98 -22 -326 -12 -186 -33 -95 -65 -35 rrcurveto
            -75 -547 319 hlineto
            99 547 rmoveto
            29 vlineto
            38 39 25 52 10 76 12 79 8 112 9 203 rrcurveto
            214 -590 hlineto
            endchar
          </CharString>
          <CharString index="98">
            1760 rmoveto
            201 241 rlineto
            -279 hlineto
            -156 -241 rlineto
            117 -539 rmoveto
            139 101 97 135 135 -101 97 -139 -139 -101 -97 -135 -135 101 -97 139 hvcurveto
            146 vmoveto
            -51 -36 36 50 50 36 36 51 51 36 -36 -50 -50 -36 -36 -51 hvcurveto
            return
          </CharString>
          <CharString index="99">
            rmoveto
            191 123 143 222 hvcurveto
            23 vlineto
            207 -128 144 -186 -186 -128 88 callsubr
            -23 vlineto
            -222 123 -143 191 vhcurveto
            198 vmoveto
            -54 -32 54 93 hvcurveto
            50 vlineto
            93 32 54 54 54 32 -54 -93 vhcurveto
            -50 vlineto
            -93 -32 -54 -54 vhcurveto
            return
          </CharString>
          <CharString index="100">
            -264 160 -585 -160 -264 694 264 -180 577 268 -150 290 return
          </CharString>
          <CharString index="101">
            657 325 rmoveto
            -19 hlineto
            -238 1118 rlineto
            -400 hlineto
            409 -64 callsubr
            rlineto
            449 hlineto
            408 -51 callgsubr
            rlineto
            -364 hlineto
            return
          </CharString>
          <CharString index="102">
            1506 440 rmoveto
            19 callgsubr
            return
          </CharString>
          <CharString index="103">
            12 callsubr
            8 callgsubr
            vhcurveto
            return
          </CharString>
          <CharString index="104">
            -104 -66 63 100 -3 hvcurveto
            return
          </CharString>
          <CharString index="105">
            1296 47 callgsubr
          </CharString>
          <CharString index="106">
            -51 callgsubr
            -336 93 callgsubr
            775 -39 rmoveto
            252 125 154 310 hvcurveto
            1018 -670 -295 333 -690 vlineto
            -148 -11 -38 -43 -41 -14 46 140 -1 vhcurveto
            -322 hlineto
            -337 126 -160 266 vhcurveto
            endchar
          </CharString>
          <CharString index="107">
            -13 callgsubr
            -753 return
          </CharString>
          <CharString index="108">
            212 212 -639 618 -639 -618 212 -212 200 222 97 159 rlineto
            17 hlineto
            -35 -209 rlineto
            return
          </CharString>
          <CharString index="109">
            hlineto
            205 51 callgsubr
            return
          </CharString>
          <CharString index="110">
            886 -28 callsubr
            return
          </CharString>
          <CharString index="111">
            1342 -92 callgsubr
            517 327 rmoveto
            264 316 rlineto
            -329 hlineto
            -217 -316 rlineto
            return
          </CharString>
          <CharString index="112">
            1932 rmoveto
            158 280 rlineto
            -320 hlineto
            -126 -280 rlineto
            521 -325 rmoveto
            196 -782 -196 vlineto
            return
          </CharString>
          <CharString index="113">
            797 10 callsubr
            return
          </CharString>
          <CharString index="114">
            -491 rmoveto
            -105 callsubr
            return
          </CharString>
          <CharString index="115">
            -106 hlineto
            1160 105 93 callsubr
            -212 -106 rmoveto
            106 106 -106 hlineto
            -211 -106 rmoveto
            106 106 -106 hlineto
            -210 89 callgsubr
            949 return
          </CharString>
          <CharString index="116">
            rmoveto
            104 72 68 93 93 -72 67 -104 -104 -72 -67 -93 -93 72 -68 104 hvcurveto
            170 -353 rmoveto
            269 283 56 callsubr
            -130 -146 rlineto
            -22 hlineto
            -130 146 56 callsubr
            269 -283 rlineto
            endchar
          </CharString>
          <CharString index="117">
            1577 -91 callsubr
            return
          </CharString>
          <CharString index="118">
            rmoveto
            196 -782 -196 vlineto
            521 325 rmoveto
            -126 280 rlineto
            -320 hlineto
            158 -280 rlineto
            endchar
          </CharString>
          <CharString index="119">
            -123 -65 -71 -113 return
          </CharString>
          <CharString index="120">
            -23 callsubr
            -1184 return
          </CharString>
          <CharString index="121">
            -345 -286 -263 286 return
          </CharString>
          <CharString index="122">
            rmoveto
            283 715 -268 hlineto
            -183 -139 rlineto
            -223 vlineto
            164 133 rlineto
            4 hlineto
            1098 229 -9 callgsubr
          </CharString>
          <CharString index="123">
            847 -263 rmoveto
            -7 -24 -19 -2 -31 hhcurveto
            -70 -46 39 58 68 47 55 103 52 hvcurveto
            -236 hlineto
            -103 -67 -49 -83 -111 vvcurveto
            -132 102 -86 158 57 64 11 17 47 vhcurveto
            endchar
          </CharString>
          <CharString index="124">
            -199 160 -144 258 258 160 144 199 vhcurveto
            return
          </CharString>
          <CharString index="125">
            215 -161 144 -239 -239 -161 -144 -215 vhcurveto
            return
          </CharString>
          <CharString index="126">
            362 rlineto
            -373 hlineto
            return
          </CharString>
          <CharString index="127">
            -71 callgsubr
            endchar
          </CharString>
          <CharString index="128">
            553 hmoveto
            538 534 281 -534 329 591 295 -958 93 callgsubr
            return
          </CharString>
          <CharString index="129">
            1347 -92 callgsubr
            return
          </CharString>
          <CharString index="130">
            631 vlineto
            133 72 82 116 116 59 -71 -140 vhcurveto
            return
          </CharString>
          <CharString index="131">
            1184 vlineto
            endchar
          </CharString>
          <CharString index="132">
            -98 callsubr
            42 92 rlineto
            return
          </CharString>
          <CharString index="133">
            103 48 63 135 135 -48 63 -103 -103 -48 -63 -135 -135 48 -63 103 hvcurveto
            return
          </CharString>
          <CharString index="134">
            1272 rmoveto
            -105 callsubr
            return
          </CharString>
          <CharString index="135">
            -64 callsubr
            367 return
          </CharString>
          <CharString index="136">
            -189 -786 rlineto
            -19 hlineto
            -193 786 rlineto
            -381 hlineto
            385 -1113 rlineto
            return
          </CharString>
          <CharString index="137">
            rlineto
            -391 hlineto
            return
          </CharString>
          <CharString index="138">
            rmoveto
            -163 315 rlineto
            -302 hlineto
            194 -315 rlineto
            return
          </CharString>
          <CharString index="139">
            -158 -72 -98 -116 return
          </CharString>
          <CharString index="140">
            -64 callsubr
            hlineto
            return
          </CharString>
          <CharString index="141">
            1632 -92 callgsubr
            return
          </CharString>
          <CharString index="142">
            -67 -3 -32 -28 -42 -85 -45 111 -145 hhcurveto
            -137 -101 -99 -170 hvcurveto
            194 hlineto
            59 3 30 32 44 85 45 -111 145 hhcurveto
            return
          </CharString>
          <CharString index="143">
            635 65 callsubr
            -391 91 29 callgsubr
            return
          </CharString>
          <CharString index="144">
            -1296 rmoveto
            47 callsubr
          </CharString>
          <CharString index="145">
            -74 callsubr
            endchar
          </CharString>
          <CharString index="146">
            -295 200 -852 -200 -296 767 296 -200 852 return
          </CharString>
          <CharString index="147">
            rmoveto
            240 2800 -240 hlineto
            return
          </CharString>
          <CharString index="148">
            440 rmoveto
            240 return
          </CharString>
          <CharString index="149">
            rmoveto
            142 664 rlineto
            -336 hlineto
            -122 -664 rlineto
            848 hmoveto
            142 664 rlineto
            -336 hlineto
            -121 -664 rlineto
            endchar
          </CharString>
          <CharString index="150">
            1247 rmoveto
            -70 callgsubr
            endchar
          </CharString>
          <CharString index="151">
            100 callgsubr
            -1184 -753 87 callsubr
            return
          </CharString>
          <CharString index="152">
            70 80 281 -429 rlineto
            return
          </CharString>
          <CharString index="153">
            -51 callgsubr
            rmoveto
            return
          </CharString>
          <CharString index="154">
            -49 callgsubr
            endchar
          </CharString>
          <CharString index="155">
            -240 513 23 callgsubr
            240 hlineto
            endchar
          </CharString>
          <CharString index="156">
            102 4 57 66 83 hhcurveto
            83 57 -66 -102 4 hvcurveto
            return
          </CharString>
          <CharString index="157">
            -120 -93 -84 -109 -109 93 -84 120 return
          </CharString>
          <CharString index="158">
            263 -389 345 return
          </CharString>
          <CharString index="159">
            1506 200 80 callsubr
            240 753 240 return
          </CharString>
          <CharString index="160">
            rmoveto
            133 71 74 125 121 -71 78 -133 -134 -71 -78 -121 -125 71 -74 134 hvcurveto
            endchar
          </CharString>
          <CharString index="161">
            20 callgsubr
            -1280 return
          </CharString>
          <CharString index="162">
            -64 callsubr
            954 hlineto
            return
          </CharString>
          <CharString index="163">
            rlineto
            -298 hlineto
            return
          </CharString>
          <CharString index="164">
            1224 46 callsubr
            -1182 -295 200 return
          </CharString>
          <CharString index="165">
            69 callsubr
            240 1280 513 240 return
          </CharString>
          <CharString index="166">
            rmoveto
            101 664 rlineto
            -344 hlineto
            -82 -664 rlineto
            endchar
          </CharString>
          <CharString index="167">
            -464 vmoveto
            1266 return
          </CharString>
          <CharString index="168">
            rmoveto
            63 callgsubr
          </CharString>
          <CharString index="169">
            rmoveto
            -64 callsubr
            277 vlineto
            285 67 139 593 568 -71 143 -281 hvcurveto
            return
          </CharString>
          <CharString index="170">
            -240 -1280 -240 54 callsubr
            -513 -240 vlineto
            endchar
          </CharString>
          <CharString index="171">
            -1266 hlineto
            endchar
          </CharString>
          <CharString index="172">
            1900 rmoveto
            -76 callsubr
            return
          </CharString>
          <CharString index="173">
            111 664 rlineto
            -266 hlineto
            -92 -664 rlineto
            return
          </CharString>
          <CharString index="174">
            81 callgsubr
            753 return
          </CharString>
          <CharString index="175">
            -285 320 557 return
          </CharString>
          <CharString index="176">
            753 -840 rmoveto
            return
          </CharString>
          <CharString index="177">
            129 50 65 83 110 vvcurveto
            125 -102 79 -160 -52 -48 -9 -12 -35 vhcurveto
            return
          </CharString>
          <CharString index="178">
            -125 -25 callsubr
            return
          </CharString>
          <CharString index="179">
            768 1945 rmoveto
            -165 267 rlineto
            -297 hlineto
            219 -267 rlineto
            return
          </CharString>
          <CharString index="180">
            -309 hlineto
            -102 -8 -44 -99 -99 hhcurveto
            -108 -52 112 225 hvcurveto
            endchar
          </CharString>
          <CharString index="181">
            70 callgsubr
            -51 callgsubr
            vlineto
            endchar
          </CharString>
          <CharString index="182">
            1280 vlineto
            endchar
          </CharString>
          <CharString index="183">
            87 73 72 88 88 -73 72 -87 -87 -73 -72 -88 -88 73 -72 87 hvcurveto
            return
          </CharString>
          <CharString index="184">
            -240 99 callgsubr
            return
          </CharString>
          <CharString index="185">
            vlineto
            -35 209 rlineto
            17 hlineto
            97 -159 return
          </CharString>
          <CharString index="186">
            849 -840 rmoveto
            return
          </CharString>
          <CharString index="187">
            rmoveto
            240 -753 return
          </CharString>
          <CharString index="188">
            417 344 rmoveto
            1089 432 -657 1184 -432 return
          </CharString>
          <CharString index="189">
            -69 -285 rlineto
            294 hlineto
            125 525 rlineto
            73 vlineto
            endchar
          </CharString>
          <CharString index="190">
            -432 753 -1184 vlineto
            endchar
          </CharString>
          <CharString index="191">
            vhcurveto
            -345 hlineto
            return
          </CharString>
          <CharString index="192">
            1163 492 rmoveto
            302 -1060 -302 vlineto
            endchar
          </CharString>
          <CharString index="193">
            -240 753 23 callgsubr
            vlineto
            endchar
          </CharString>
          <CharString index="194">
            -432 657 -1184 return
          </CharString>
          <CharString index="195">
            -144 -207 vhcurveto
            return
          </CharString>
          <CharString index="196">
            -222 200 -159 97 rlineto
            17 vlineto
            209 -35 rlineto
            return
          </CharString>
          <CharString index="197">
            222 -200 159 -97 rlineto
            -17 vlineto
            -209 35 rlineto
            return
          </CharString>
          <CharString index="198">
            -240 -1040 67 callsubr
            -240 -753 return
          </CharString>
          <CharString index="199">
            93 callgsubr
            endchar
          </CharString>
          <CharString index="200">
            rmoveto
            106 106 -106 hlineto
            -210 -106 rmoveto
            105 106 -105 hlineto
            return
          </CharString>
          <CharString index="201">
            hhcurveto
            -330 -206 -190 -305 hvcurveto
            -175 vlineto
            return
          </CharString>
          <CharString index="202">
            209 35 rlineto
            -17 vlineto
            -159 -97 -222 -200 return
          </CharString>
          <CharString index="203">
            88 hhcurveto
            194 105 188 270 hvcurveto
            -251 hlineto
            return
          </CharString>
          <CharString index="204">
            1026 2187 rmoveto
            -782 -196 782 hlineto
            return
          </CharString>
          <CharString index="205">
            -240 753 -1040 118 callgsubr
          </CharString>
          <CharString index="206">
            rmoveto
            237 432 -237 hlineto
            return
          </CharString>
          <CharString index="207">
            hmoveto
            -106 -106 106 vlineto
            return
          </CharString>
          <CharString index="208">
            -60 -3 -66 -57 -103 hhcurveto
            -103 -66 57 60 -3 hvcurveto
            return
          </CharString>
          <CharString index="209">
            -131 -96 93 129 129 96 93 131 return
          </CharString>
          <CharString index="210">
            rmoveto
            753 240 -513 1040 -240 hlineto
            return
          </CharString>
          <CharString index="211">
            131 96 -93 -129 -129 -96 -93 -131 return
          </CharString>
          <CharString index="212">
            -75 callgsubr
            hvcurveto
            175 vlineto
            return
          </CharString>
          <CharString index="213">
            344 rmoveto
            993 432 -993 hlineto
            endchar
          </CharString>
          <CharString index="214">
            410 -344 -1113 return
          </CharString>
          <CharString index="215">
            -106 106 106 vlineto
            return
          </CharString>
          <CharString index="216">
            rlineto
            412 hlineto
            return
          </CharString>
          <CharString index="217">
            240 384 -240 hlineto
            return
          </CharString>
          <CharString index="218">
            240 -1746 return
          </CharString>
          <CharString index="219">
            -297 -64 callsubr
            return
          </CharString>
          <CharString index="220">
            vhcurveto
            -165 vlineto
            return
          </CharString>
          <CharString index="221">
            rmoveto
            63 54 8 15 39 hvcurveto
            179 vlineto
            return
          </CharString>
          <CharString index="222">
            560 vmoveto
            46 callgsubr
            return
          </CharString>
          <CharString index="223">
            -78 -129 vhcurveto
            9 -353 rmoveto
            -59 -12 return
          </CharString>
          <CharString index="224">
            87 callsubr
            vlineto
            endchar
          </CharString>
          <CharString index="225">
            hmoveto
            -51 callgsubr
            return
          </CharString>
          <CharString index="226">
            71 123 vhcurveto
            return
          </CharString>
          <CharString index="227">
            rlineto
            313 hlineto
            return
          </CharString>
        <CharString name=".notdef">
          endchar
        </CharString>
        <CharString name="A">
          491 581 rmoveto
          -104 callgsubr
        </CharString>
        <CharString name="AE">
          434 589 -50 callgsubr
        </CharString>
        <CharString name="AEacute">
          1223 -5 callgsubr
          -485 -1007 -50 callgsubr
        </CharString>
        <CharString name="AEmacron">
          1144 1844 41 callgsubr
          -710 -1043 -50 callgsubr
        </CharString>
        <CharString name="Aacute">
          1094 -5 callgsubr
          -299 -1015 rmoveto
          -104 callgsubr
        </CharString>
        <CharString name="Abreve">
          815 -14 callsubr
          -560 -1351 rmoveto
          -104 callgsubr
        </CharString>
        <CharString name="Abreveacute">
          960 2212 rmoveto
          -297 hlineto
          -165 -267 rlineto
          243 hlineto
          74 -21 rmoveto
          -91 -3 -70 -62 -109 hhcurveto
          -109 -70 62 91 -3 hvcurveto
          -236 hlineto
          17 callsubr
          -560 -1343 rmoveto
          -104 callgsubr
        </CharString>
        <CharString name="Abrevedotbelow">
          815 -14 callsubr
          -418 -2057 -42 callgsubr
        </CharString>
        <CharString name="Abrevegrave">
          72 callsubr
          290 -21 rmoveto
          -91 -3 -70 -62 -109 hhcurveto
          -109 -70 62 91 -3 hvcurveto
          -236 hlineto
          17 callsubr
          -560 -1343 rmoveto
          -104 callgsubr
        </CharString>
        <CharString name="Abrevehookabove">
          621 1804 rmoveto
          70 callsubr
          -155 vlineto
          82 callgsubr
          307 -34 rmoveto
          91 callgsubr
          -205 hlineto
          -193 155 -129 246 246 155 129 193 vhcurveto
          -543 -1301 rmoveto
          -104 callgsubr
        </CharString>
        <CharString name="Abrevetilde">
          831 2208 rmoveto
          35 callsubr
          137 101 99 174 hvcurveto
          -220 -333 rmoveto
          101 callsubr
          -220 hlineto
          76 callgsubr
          -534 -1294 rmoveto
          -104 callgsubr
        </CharString>
        <CharString name="Acaron">
          798 1585 rmoveto
          275 350 56 callsubr
          -132 -190 rlineto
          -20 hlineto
          -132 190 56 callsubr
          275 -350 rlineto
          23 -1004 rmoveto
          -104 callgsubr
        </CharString>
        <CharString name="Acircumflex">
          42 callgsubr
          -1015 vmoveto
          -104 callgsubr
        </CharString>
        <CharString name="Acircumflexacute">
          1356 2212 rmoveto
          -303 hlineto
          -162 -315 rlineto
          271 hlineto
          -540 -170 rmoveto
          22 hlineto
          130 -146 rlineto
          298 hlineto
          -269 275 rlineto
          -340 hlineto
          -269 -275 rlineto
          298 hlineto
          -1 -1000 22 callgsubr
          -334 862 rmoveto
          24 callgsubr
          67 -317 rlineto
          400 hlineto
          -409 -51 callgsubr
          rlineto
          endchar
        </CharString>
        <CharString name="Acircumflexdotbelow">
          42 callgsubr
          142 -1721 -42 callgsubr
        </CharString>
        <CharString name="Acircumflexgrave">
          1209 1897 31 callsubr
          -316 -170 rmoveto
          22 hlineto
          130 -146 rlineto
          298 hlineto
          -269 275 rlineto
          -340 hlineto
          -269 -275 rlineto
          298 hlineto
          -1 -1000 rmoveto
          -104 callgsubr
        </CharString>
        <CharString name="Acircumflexhookabove">
          1006 1768 rmoveto
          125 50 63 86 116 vvcurveto
          130 -101 83 -160 -54 -52 -8 -12 -32 113 callsubr
          9 23 34 6 35 hhcurveto
          63 39 -29 -47 -40 -27 -38 -65 -26 hvcurveto
          -275 -156 rmoveto
          22 hlineto
          130 -146 rlineto
          298 hlineto
          -269 275 rlineto
          -340 hlineto
          -269 -275 rlineto
          298 hlineto
          -1 -1000 rmoveto
          -104 callgsubr
        </CharString>
        <CharString name="Acircumflextilde">
          843 2212 rmoveto
          -77 -3 -34 -32 -45 -91 -35 121 -156 hhcurveto
          -146 -103 -104 -189 hvcurveto
          193 hlineto
          69 3 32 36 47 91 35 -121 156 hhcurveto
          146 103 105 192 hvcurveto
          -414 -485 rmoveto
          22 hlineto
          130 -146 rlineto
          298 hlineto
          -269 275 rlineto
          -340 hlineto
          -269 -275 rlineto
          298 hlineto
          -1 -1000 rmoveto
          -104 callgsubr
        </CharString>
        <CharString name="Acyrillic">
          491 581 rmoveto
          -104 callgsubr
        </CharString>
        <CharString name="Adblgrave">
          979 1596 rmoveto
          -220 326 rlineto
          -293 33 callgsubr
          -184 hmoveto
          -221 326 rlineto
          -292 33 callgsubr
          226 -1015 rmoveto
          -104 callgsubr
        </CharString>
        <CharString name="Adieresis">
          886 1600 rmoveto
          -107 callsubr
          -506 hmoveto
          -107 callsubr
          111 -1019 rmoveto
          -104 callgsubr
        </CharString>
        <CharString name="Adieresismacron">
          97 callsubr
          -138 -91 -20 callsubr
          -340 rmoveto
          -107 callsubr
          109 -979 rmoveto
          -104 callgsubr
        </CharString>
        <CharString name="Adotaccent">
          633 1571 rmoveto
          -105 callsubr
          -142 -990 rmoveto
          -104 callgsubr
        </CharString>
        <CharString name="Adotbelow">
          633 -125 -42 callgsubr
        </CharString>
        <CharString name="Adotmacron">
          97 callsubr
          -561 -261 rmoveto
          -84 callgsubr
          93 77 76 94 94 -77 76 -93 -93 -77 -76 -94 vhcurveto
          26 -1149 rmoveto
          -104 callgsubr
        </CharString>
        <CharString name="Agrave">
          794 1596 rmoveto
          -258 326 rlineto
          -3 callgsubr
          13 -1015 rmoveto
          -104 callgsubr
        </CharString>
        <CharString name="Ahookabove">
          632 1555 rmoveto
          133 52 76 90 119 vvcurveto
          134 -112 87 -151 -73 -59 -14 -12 -36 vhcurveto
          -168 vlineto
          11 25 44 8 42 hhcurveto
          72 42 -32 -48 -44 -43 -38 -63 -24 hvcurveto
          -38 -1095 rmoveto
          -104 callgsubr
        </CharString>
        <CharString name="Ainvertedbreve">
          1051 1581 rmoveto
          207 -160 144 -258 -258 -160 88 callsubr
          236 hlineto
          99 3 70 62 109 hhcurveto
          109 70 -62 -99 3 hvcurveto
          -324 -1000 rmoveto
          -104 callgsubr
        </CharString>
        <CharString name="Alphagreek">
          491 581 rmoveto
          -104 callgsubr
        </CharString>
        <CharString name="Alphatonosgreek">
          375 46 callsubr
          -310 hlineto
          -70 -394 rlineto
          228 hlineto
          367 -468 rmoveto
          89 537 rlineto
          19 hlineto
          85 -537 rlineto
          93 -581 rmoveto
          390 hlineto
          -339 -51 callgsubr
          rlineto
          -449 hlineto
          -338 -64 callsubr
          rlineto
          354 hlineto
          52 317 rlineto
          280 hlineto
          endchar
        </CharString>
        <CharString name="Amacron">
          1015 1844 41 callgsubr
          -524 -1051 rmoveto
          -104 callgsubr
        </CharString>
        <CharString name="Aogonek">
          491 581 22 callgsubr
          524 -581 rmoveto
          -98 callgsubr
          366 hlineto
          67 -317 rlineto
          -81 -66 -35 -66 -90 vvcurveto
          -152 136 -105 196 67 66 9 14 33 vhcurveto
          179 vlineto
          -4 -7 -46 -4 -38 hhcurveto
          -91 -53 39 67 88 76 55 167 34 hvcurveto
          endchar
        </CharString>
        <CharString name="Aring">
          633 1833 rmoveto
          51 39 -38 -51 -50 -37 -39 -53 -51 -39 38 51 51 39 38 51 hvcurveto
          1 -290 -25 callgsubr
          -143 -962 rmoveto
          -104 callgsubr
        </CharString>
        <CharString name="Aringacute">
          887 2230 rmoveto
          -305 hlineto
          -87 -195 rlineto
          277 hlineto
          -139 -184 rmoveto
          51 39 -38 -51 -50 -37 -39 -53 -51 -39 38 51 51 39 38 51 hvcurveto
          1 -290 -25 callgsubr
          -143 -980 rmoveto
          -104 callgsubr
        </CharString>
        <CharString name="Aringbelow">
          628 1118 rmoveto
          114 -537 rlineto
          -251 hlineto
          118 537 rlineto
          190 -801 rmoveto
          67 -317 rlineto
          400 hlineto
          -98 callgsubr
          200 -754 rmoveto
          -50 -40 41 49 49 40 41 50 50 40 -41 -49 -49 -40 -41 -50 hvcurveto
          338 vmoveto
          -136 -112 -112 109 callgsubr
          112 -112 113 callgsubr
          112 112 113 callgsubr
          -112 112 -136 hvcurveto
          endchar
        </CharString>
        <CharString name="Atilde">
          846 1893 rmoveto
          -86 -4 -33 -29 -46 -85 -44 127 -165 hhcurveto
          -147 -110 -115 -205 hvcurveto
          209 hlineto
          86 3 32 33 47 90 42 -127 162 hhcurveto
          147 110 115 201 hvcurveto
          -563 -1312 rmoveto
          -104 callgsubr
        </CharString>
        <CharString name="B">
          -93 callgsubr
          endchar
        </CharString>
        <CharString name="Bdotaccent">
          -93 callgsubr
          -3 1307 rmoveto
          -32 callgsubr
        </CharString>
        <CharString name="Bdotbelow">
          -93 callgsubr
          -3 -755 rmoveto
          -32 callgsubr
        </CharString>
        <CharString name="Becyrillic">
          489 653 rmoveto
          140 hlineto
          130 74 -67 -118 -118 -74 -67 -130 hvcurveto
          -140 hlineto
          635 vmoveto
          230 601 295 -968 -64 callsubr
          597 vlineto
          293 195 186 280 270 -203 182 -301 hvcurveto
          endchar
        </CharString>
        <CharString name="Betagreek">
          -93 callgsubr
          endchar
        </CharString>
        <CharString name="Blinebelow">
          -93 callgsubr
          379 -691 -92 callgsubr
          endchar
        </CharString>
        <CharString name="C">
          664 278 rmoveto
          -136 -70 97 187 hvcurveto
          -32 callsubr
          -371 220 -220 371 354 205 207 356 vhcurveto
          -373 hlineto
          32 callsubr
          vhcurveto
          endchar
        </CharString>
        <CharString name="Cacute">
          664 278 rmoveto
          -136 -70 97 187 hvcurveto
          -32 callsubr
          -371 220 -220 371 354 205 207 356 vhcurveto
          -373 hlineto
          32 callsubr
          vhcurveto
          -190 1318 -80 callgsubr
          endchar
        </CharString>
        <CharString name="Ccaron">
          1073 -93 callsubr
          -340 -704 rmoveto
          -86 callsubr
          -371 220 -220 371 354 205 207 356 vhcurveto
          -373 hlineto
          32 callsubr
          -136 -70 97 187 vhcurveto
          endchar
        </CharString>
        <CharString name="Ccedilla">
          852 534 -65 callgsubr
        </CharString>
        <CharString name="Ccedillaacute">
          1094 -5 callgsubr
          62 -1062 -65 callgsubr
        </CharString>
        <CharString name="Ccircumflex">
          664 278 rmoveto
          -136 -70 97 187 hvcurveto
          -32 callsubr
          -371 220 -220 371 354 205 207 356 vhcurveto
          -373 hlineto
          32 callsubr
          vhcurveto
          134 1668 -82 callgsubr
          endchar
        </CharString>
        <CharString name="Cdotaccent">
          664 278 rmoveto
          -136 -70 97 187 hvcurveto
          -32 callsubr
          -371 220 -220 371 354 205 207 356 vhcurveto
          -373 hlineto
          32 callsubr
          vhcurveto
          -31 1293 rmoveto
          -32 callgsubr
        </CharString>
        <CharString name="Checyrillic">
          1192 46 callsubr
          -367 -592 hlineto
          -27 callgsubr
          -546 367 hlineto
          endchar
        </CharString>
        <CharString name="Chigreek">
          -60 callsubr
          endchar
        </CharString>
        <CharString name="D">
          -66 callgsubr
          endchar
        </CharString>
        <CharString name="Dcaron">
          1021 -93 callsubr
          -288 -437 rmoveto
          85 hlineto
          201 96 -136 -283 -302 -90 -132 -207 hvcurveto
          -85 hlineto
          -367 1148 rmoveto
          -64 callsubr
          508 vlineto
          405 210 251 485 461 -214 246 -401 hvcurveto
          endchar
        </CharString>
        <CharString name="Dcircumflexbelow">
          -66 callgsubr
          -54 -451 rmoveto
          -17 callgsubr
        </CharString>
        <CharString name="Dcommaaccent">
          -66 callgsubr
          172 -799 -55 callsubr
        </CharString>
        <CharString name="Dcroat">
          494 274 rmoveto
          326 259 252 -259 317 62 vlineto
          208 95 -137 -303 -327 -82 -128 -211 hvcurveto
          -399 1169 rmoveto
          -591 -134 -252 134 -600 433 vlineto
          405 210 251 485 461 -214 246 -401 hvcurveto
          endchar
        </CharString>
        <CharString name="Ddotaccent">
          -66 callgsubr
          123 1276 rmoveto
          -32 callgsubr
        </CharString>
        <CharString name="Ddotbelow">
          -66 callgsubr
          123 -786 rmoveto
          -32 callgsubr
        </CharString>
        <CharString name="Decyrillic">
          912 hmoveto
          -285 329 581 -119 1147 -900 vlineto
          -39 -767 -12 -228 -21 -85 -73 -67 rlinecurve
          -57 -581 329 285 hlineto
          194 1149 rmoveto
          213 -853 -307 29 hlineto
          38 63 23 100 8 156 rrcurveto
          endchar
        </CharString>
        <CharString name="Deltagreek">
          35 hmoveto
          1196 196 hlineto
          -374 1247 rlineto
          -449 hlineto
          -373 -1247 rlineto
          375 99 rmoveto
          19 vlineto
          199 814 rlineto
          19 hlineto
          194 -814 rlineto
          -19 vlineto
          endchar
        </CharString>
        <CharString name="Djecyrillic">
          682 -67 rmoveto
          -9 25 76 -8 55 hhcurveto
          272 138 168 343 297 -136 182 -273 -163 -72 -58 0 hvcurveto
          -15 300 303 295 -892 -295 263 -1148 326 568 hlineto
          0 48 40 98 115 50 -71 -131 -142 -43 -60 -94 -24 -29 4 7 -28 vhcurveto
          endchar
        </CharString>
        <CharString name="Dlinebelow">
          -66 callgsubr
          505 -722 -92 callgsubr
          endchar
        </CharString>
        <CharString name="Dzecyrillic">
          62 416 -102 callgsubr
          endchar
        </CharString>
        <CharString name="Dzhecyrillic">
          460 -285 rmoveto
          345 285 406 -51 callgsubr
          -367 -1148 -422 1148 112 callgsubr
          405 hlineto
          endchar
        </CharString>
        <CharString name="E">
          1128 295 -54 callgsubr
        </CharString>
        <CharString name="Eacute">
          1128 295 -100 callsubr
          -656 -4 callgsubr
          endchar
        </CharString>
        <CharString name="Ebreve">
          1128 295 -100 callsubr
          -895 1932 -55 callgsubr
        </CharString>
        <CharString name="Ecaron">
          1091 -93 callsubr
          312 -1290 -54 callgsubr
        </CharString>
        <CharString name="Ecedilla">
          1128 1148 rmoveto
          295 -954 -64 callsubr
          383 vlineto
          -47 -102 rlineto
          -137 60 vlineto
          25 callsubr
          370 295 -587 295 550 270 -550 288 hlineto
          endchar
        </CharString>
        <CharString name="Ecedillabreve">
          833 -14 callsubr
          59 -784 rmoveto
          295 -954 -64 callsubr
          383 vlineto
          -47 -102 rlineto
          -137 60 vlineto
          25 callsubr
          370 295 -587 295 550 270 -550 288 hlineto
          endchar
        </CharString>
        <CharString name="Ecircumflex">
          1128 295 -100 callsubr
          -312 1946 -82 callgsubr
          endchar
        </CharString>
        <CharString name="Ecircumflexacute">
          1128 295 -100 callsubr
          -219 1897 rmoveto
          271 hlineto
          194 315 rlineto
          -303 hlineto
          -250 -356 -70 callsubr
          endchar
        </CharString>
        <CharString name="Ecircumflexbelow">
          1128 295 -100 callsubr
          -654 -156 rmoveto
          -17 callgsubr
        </CharString>
        <CharString name="Ecircumflexdotbelow">
          1128 295 -100 callsubr
          -312 1946 -82 callgsubr
          -440 -2087 rmoveto
          -32 callgsubr
        </CharString>
        <CharString name="Ecircumflexgrave">
          1128 295 -100 callsubr
          99 1897 31 callsubr
          -135 -41 -70 callsubr
          endchar
        </CharString>
        <CharString name="Ecircumflexhookabove">
          1128 295 -100 callsubr
          -315 2048 -46 callgsubr
        </CharString>
        <CharString name="Ecircumflextilde">
          1128 295 -100 callsubr
          -307 1856 -49 callsubr
        </CharString>
        <CharString name="Ecyrillic">
          852 534 rmoveto
          32 callsubr
          -136 -70 97 187 vhcurveto
          30 387 272 -387 17 -30 callsubr
          -371 220 -220 371 354 205 207 356 vhcurveto
          endchar
        </CharString>
        <CharString name="Edblgrave">
          777 -48 callgsubr
          580 -1301 -54 callgsubr
        </CharString>
        <CharString name="Edieresis">
          1128 295 -100 callsubr
          -730 1600 rmoveto
          -107 callsubr
          506 hmoveto
          -107 callsubr
          endchar
        </CharString>
        <CharString name="Edotaccent">
          1128 295 -100 callsubr
          -467 1571 rmoveto
          -32 callgsubr
        </CharString>
        <CharString name="Edotbelow">
          1128 295 -100 callsubr
          -477 7 callsubr
          endchar
        </CharString>
        <CharString name="Efcyrillic">
          466 -35 rmoveto
          334 175 hlineto
          312 14 151 190 379 vvcurveto
          377 -152 191 -311 14 vhcurveto
          173 -334 -173 vlineto
          -311 -14 -152 -191 -377 vvcurveto
          -379 151 -190 312 -14 vhcurveto
          -138 583 rmoveto
          214 48 112 96 11 vhcurveto
          -674 vlineto
          -97 9 -47 110 218 vvcurveto
          466 337 rmoveto
          96 -11 48 -112 -214 vvcurveto
          -218 -47 -110 -97 -9 vhcurveto
          endchar
        </CharString>
        <CharString name="Egrave">
          554 -42 callsubr
          316 -1301 -54 callgsubr
        </CharString>
        <CharString name="Ehookabove">
          1128 295 -100 callsubr
          -700 1843 20 callsubr
        </CharString>
        <CharString name="Einvertedbreve">
          469 -56 callgsubr
          895 -1286 -54 callgsubr
        </CharString>
        <CharString name="Elcyrillic">
          1182 46 callsubr
          -948 hlineto
          16 callgsubr
          357 hlineto
          endchar
        </CharString>
        <CharString name="Emacron">
          1128 295 -100 callsubr
          -95 34 callsubr
          endchar
        </CharString>
        <CharString name="Emacronacute">
          809 5 callsubr
          868 -1312 -54 callgsubr
        </CharString>
        <CharString name="Emacrongrave">
          1128 295 -100 callsubr
          -86 1607 11 callsubr
        </CharString>
        <CharString name="Emcyrillic">
          -74 callgsubr
          endchar
        </CharString>
        <CharString name="Encyrillic">
          -59 callsubr
          endchar
        </CharString>
        <CharString name="Eogonek">
          811 hmoveto
          -19 vlineto
          -85 -58 -45 -79 -92 vvcurveto
          -138 113 -93 168 59 63 10 16 44 vhcurveto
          176 vlineto
          -4 -16 -33 -4 -21 hhcurveto
          -72 -49 41 61 75 64 66 110 39 hvcurveto
          17 6 rlineto
          292 -587 295 550 270 -550 288 587 295 -954 92 callsubr
        </CharString>
        <CharString name="Epsilongreek">
          1128 295 -54 callgsubr
        </CharString>
        <CharString name="Epsilontonosgreek">
          1206 295 rmoveto
          -383 295 346 270 -346 288 383 295 -730 -64 callsubr
          730 hlineto
          -1211 1049 -14 callgsubr
        </CharString>
        <CharString name="Ercyrillic">
          -61 callgsubr
          endchar
        </CharString>
        <CharString name="Ereversedcyrillic">
          366 918 -87 callgsubr
        </CharString>
        <CharString name="Escyrillic">
          664 278 rmoveto
          -136 -70 97 187 hvcurveto
          -32 callsubr
          -371 220 -220 371 354 205 207 356 vhcurveto
          -373 hlineto
          32 callsubr
          vhcurveto
          endchar
        </CharString>
        <CharString name="Etagreek">
          -59 callsubr
          endchar
        </CharString>
        <CharString name="Etatonosgreek">
          1226 118 callsubr
          -312 -571 -162 571 -312 -64 callsubr
          312 587 162 -587 vlineto
          -919 1049 -14 callgsubr
        </CharString>
        <CharString name="Eth">
          458 295 rmoveto
          292 215 273 -215 288 85 vlineto
          201 96 -136 -283 -302 -90 -132 -207 hvcurveto
          -452 1148 rmoveto
          -583 -113 -273 113 -587 508 vlineto
          405 210 251 485 461 -214 246 -401 hvcurveto
          endchar
        </CharString>
        <CharString name="Etilde">
          1128 295 -100 callsubr
          -313 10 callsubr
          endchar
        </CharString>
        <CharString name="Etildebelow">
          1128 295 -100 callsubr
          -601 -337 -104 callsubr
          endchar
        </CharString>
        <CharString name="Euro">
          1226 -18 rmoveto
          299 vlineto
          -6 -37 -63 -4 -63 hhcurveto
          -205 -112 61 152 -79 hvcurveto
          483 170 -535 hlineto
          -3 15 -1 20 34 vvcurveto
          18 1 19 2 18 vhcurveto
          536 169 -491 hlineto
          160 79 117 65 214 hhcurveto
          46 57 -5 -8 54 hvcurveto
          294 vlineto
          12 -44 -74 7 -77 hhcurveto
          -431 -247 -171 -354 -82 hvcurveto
          -166 -169 143 hlineto
          -1 -15 -1 -19 -22 vvcurveto
          -24 1 -22 2 -22 vhcurveto
          -144 -170 169 hlineto
          -346 86 246 -166 426 hhcurveto
          74 56 3 7 64 hvcurveto
          endchar
        </CharString>
        <CharString name="F">
          21 callsubr
          endchar
        </CharString>
        <CharString name="Fdotaccent">
          21 callsubr
          467 1571 rmoveto
          -32 callgsubr
        </CharString>
        <CharString name="G">
          842 491 -97 callsubr
          endchar
        </CharString>
        <CharString name="Gacute">
          842 491 -97 callsubr
          -361 1061 -80 callgsubr
          endchar
        </CharString>
        <CharString name="Gammagreek">
          207 hmoveto
          365 hlineto
          1 1148 rlineto
          590 295 -956 hlineto
          endchar
        </CharString>
        <CharString name="Gbreve">
          842 491 -97 callsubr
          -620 1397 -55 callgsubr
        </CharString>
        <CharString name="Gcaron">
          1080 -93 callsubr
          37 -1094 -97 callsubr
          endchar
        </CharString>
        <CharString name="Gcircumflex">
          842 491 -97 callsubr
          -37 1411 -82 callgsubr
          endchar
        </CharString>
        <CharString name="Gcommaaccent">
          842 491 -97 callsubr
          -167 -1039 -55 callsubr
        </CharString>
        <CharString name="Gdotaccent">
          842 491 -97 callsubr
          -202 1036 rmoveto
          -32 callgsubr
        </CharString>
        <CharString name="Gecyrillic">
          1224 1443 rmoveto
          -1182 39 callsubr
          74 callgsubr
        </CharString>
        <CharString name="Geupturncyrillic">
          919 1728 rmoveto
          -285 -887 39 callsubr
          320 -200 325 780 vlineto
          endchar
        </CharString>
        <CharString name="Gjecyrillic">
          1109 -5 callgsubr
          419 -153 rmoveto
          -1182 39 callsubr
          74 callgsubr
        </CharString>
        <CharString name="Gmacron">
          842 491 -97 callsubr
          180 1097 -92 callgsubr
          endchar
        </CharString>
        <CharString name="H">
          -59 callsubr
          endchar
        </CharString>
        <CharString name="Hardsigncyrillic">
          627 705 rmoveto
          84 hlineto
          115 65 -76 -135 -135 -65 -76 -115 hvcurveto
          -84 hlineto
          702 vmoveto
          458 -622 -294 256 -1149 533 vlineto
          272 181 197 296 295 -192 197 -286 hvcurveto
          endchar
        </CharString>
        <CharString name="Hbar">
          485 869 rmoveto
          187 290 -187 vlineto
          -277 -287 rmoveto
          264 -582 367 1047 95 231 -95 165 -367 -165 -264 165 -367 -165 -89 -231 89 -1047 367 hlineto
          endchar
        </CharString>
        <CharString name="Hbrevebelow">
          -59 callsubr
          -184 -259 rmoveto
          -97 callgsubr
          endchar
        </CharString>
        <CharString name="Hcaron">
          1073 -93 callsubr
          377 -1585 rmoveto
          -51 callgsubr
          -358 -566 -368 566 -358 -64 callsubr
          358 582 368 -582 vlineto
          endchar
        </CharString>
        <CharString name="Hcedilla">
          817 46 callsubr
          -566 -368 566 -358 -64 callsubr
          157 vlineto
          -47 -102 rlineto
          -137 60 vlineto
          25 callsubr
          582 368 -582 358 -51 callgsubr
          vlineto
          endchar
        </CharString>
        <CharString name="Hcircumflex">
          -59 callsubr
          -19 1946 -82 callgsubr
          endchar
        </CharString>
        <CharString name="Hdieresis">
          -59 callsubr
          -437 1600 rmoveto
          -107 callsubr
          506 hmoveto
          -107 callsubr
          endchar
        </CharString>
        <CharString name="Hdotaccent">
          -59 callsubr
          -184 1571 rmoveto
          -32 callgsubr
        </CharString>
        <CharString name="Hdotbelow">
          -59 callsubr
          -184 7 callsubr
          endchar
        </CharString>
        <CharString name="I">
          1120 hmoveto
          -8 callgsubr
        </CharString>
        <CharString name="IAcyrillic">
          797 503 -66 callsubr
        </CharString>
        <CharString name="IJ">
          393 hmoveto
          -1 callsubr
        </CharString>
        <CharString name="IJacute">
          127 -4 callgsubr
          358 -326 -80 callgsubr
          -608 -1922 rmoveto
          -1 callsubr
        </CharString>
        <CharString name="IUcyrillic">
          800 1188 -79 callsubr
        </CharString>
        <CharString name="Iacute">
          1120 hmoveto
          -89 callsubr
          328 -4 callgsubr
          endchar
        </CharString>
        <CharString name="Ibreve">
          1120 hmoveto
          -89 callsubr
          69 1932 -55 callgsubr
        </CharString>
        <CharString name="Icaron">
          1073 -93 callsubr
          322 -1585 -12 callsubr
        </CharString>
        <CharString name="Icircumflex">
          1120 hmoveto
          -89 callsubr
          652 1946 -82 callgsubr
          endchar
        </CharString>
        <CharString name="Icyrillic">
          1120 hmoveto
          -8 callgsubr
        </CharString>
        <CharString name="Idblgrave">
          759 -48 callgsubr
          590 -1596 -12 callsubr
        </CharString>
        <CharString name="Idieresis">
          1120 hmoveto
          -89 callsubr
          234 1600 rmoveto
          -107 callsubr
          506 hmoveto
          -107 callsubr
          endchar
        </CharString>
        <CharString name="Idieresisacute">
          1120 hmoveto
          -89 callsubr
          350 1962 rmoveto
          274 hlineto
          185 250 rlineto
          -327 hlineto
          -248 -652 rmoveto
          -107 callsubr
          506 hmoveto
          -107 callsubr
          endchar
        </CharString>
        <CharString name="Idotaccent">
          1120 hmoveto
          -89 callsubr
          487 1571 rmoveto
          -32 callgsubr
        </CharString>
        <CharString name="Idotbelow">
          1120 hmoveto
          -89 callsubr
          487 7 callsubr
          endchar
        </CharString>
        <CharString name="Iecyrillic">
          1128 295 -54 callgsubr
        </CharString>
        <CharString name="Igrave">
          536 -42 callsubr
          326 -1596 -12 callsubr
        </CharString>
        <CharString name="Ihookabove">
          1120 hmoveto
          -89 callsubr
          264 1843 20 callsubr
        </CharString>
        <CharString name="Iicyrillic">
          104 1443 -50 callsubr
        </CharString>
        <CharString name="Iinvertedbreve">
          451 -56 callgsubr
          905 -1581 -12 callsubr
        </CharString>
        <CharString name="Iishortcyrillic">
          233 31 callgsubr
          -385 -515 -50 callsubr
        </CharString>
        <CharString name="Imacron">
          1120 hmoveto
          -89 callsubr
          869 34 callsubr
          endchar
        </CharString>
        <CharString name="Iocyrillic">
          1128 295 -100 callsubr
          -730 1600 rmoveto
          -107 callsubr
          506 hmoveto
          -107 callsubr
          endchar
        </CharString>
        <CharString name="Iogonek">
          1120 1148 rmoveto
          295 -974 -295 304 -853 -304 -295 737 vlineto
          -110 -57 -62 -99 -116 vvcurveto
          -115 107 -92 133 52 64 11 17 52 vhcurveto
          188 vlineto
          -7 -19 -19 -2 -36 hhcurveto
          -62 -34 31 56 68 61 66 110 51 hvcurveto
          295 -304 853 vlineto
          endchar
        </CharString>
        <CharString name="Iotadieresisgreek">
          1120 hmoveto
          -89 callsubr
          234 1600 rmoveto
          -107 callsubr
          506 hmoveto
          -107 callsubr
          endchar
        </CharString>
        <CharString name="Iotagreek">
          1120 hmoveto
          -8 callgsubr
        </CharString>
        <CharString name="Iotatonosgreek">
          1184 hmoveto
          295 -207 853 207 295 -717 -295 204 -853 -204 -295 vlineto
          -422 1049 -14 callgsubr
        </CharString>
        <CharString name="Iotatonosgreek.1">
          1007 118 callsubr
          -366 93 callgsubr
          -546 1049 -14 callgsubr
        </CharString>
        <CharString name="Itilde">
          1120 hmoveto
          -89 callsubr
          651 10 callsubr
          endchar
        </CharString>
        <CharString name="Itildebelow">
          1120 hmoveto
          -89 callsubr
          363 -337 -104 callsubr
          endchar
        </CharString>
        <CharString name="J">
          -24 callsubr
          endchar
        </CharString>
        <CharString name="Jcircumflex">
          -24 callsubr
          226 1975 -82 callgsubr
          endchar
        </CharString>
        <CharString name="Jecyrillic">
          -24 callsubr
          endchar
        </CharString>
        <CharString name="K">
          457 hmoveto
          -69 callgsubr
          endchar
        </CharString>
        <CharString name="Kacute">
          457 hmoveto
          -69 callgsubr
          415 -4 callgsubr
          endchar
        </CharString>
        <CharString name="Kacyrillic">
          458 46 callsubr
          -367 -1443 57 callgsubr
          -475 733 58 callgsubr
          hlineto
          endchar
        </CharString>
        <CharString name="Kappagreek">
          457 hmoveto
          -69 callgsubr
          endchar
        </CharString>
        <CharString name="Kcaron">
          1128 -93 callsubr
          -396 -1585 rmoveto
          -69 callgsubr
          endchar
        </CharString>
        <CharString name="Kcommaaccent">
          457 hmoveto
          -69 callgsubr
          569 -504 -55 callsubr
        </CharString>
        <CharString name="Kdotbelow">
          457 hmoveto
          -69 callgsubr
          570 7 callsubr
          endchar
        </CharString>
        <CharString name="Kjecyrillic">
          492 -4 callgsubr
          -292 -479 rmoveto
          -367 -1443 57 callgsubr
          -475 733 58 callgsubr
          hlineto
          endchar
        </CharString>
        <CharString name="Klinebelow">
          457 hmoveto
          -69 callgsubr
          952 -427 -92 callgsubr
          endchar
        </CharString>
        <CharString name="L">
          -34 callsubr
          endchar
        </CharString>
        <CharString name="Lacute">
          -34 callsubr
          -932 -4 callgsubr
          endchar
        </CharString>
        <CharString name="Lambdagreek">
          0 vmoveto
          364 hlineto
          245 1098 rlineto
          19 hlineto
          238 -1098 rlineto
          400 hlineto
          -409 -51 callgsubr
          rlineto
          -448 hlineto
          endchar
        </CharString>
        <CharString name="Lcaron">
          780 46 callsubr
          -511 236 vlineto
          50 511 rlineto
          95 -1140 rmoveto
          -593 1140 -361 55 callsubr
          endchar
        </CharString>
        <CharString name="Lcircumflexbelow">
          -34 callsubr
          -660 -156 rmoveto
          -17 callgsubr
        </CharString>
        <CharString name="Lcommaaccent">
          -34 callsubr
          -434 -504 -55 callsubr
        </CharString>
        <CharString name="Ldot">
          -34 callsubr
          -195 788 rmoveto
          -32 callgsubr
        </CharString>
        <CharString name="Ldotbelow">
          -34 callsubr
          -483 7 callsubr
          endchar
        </CharString>
        <CharString name="Ldotbelowmacron">
          -34 callsubr
          -483 7 callsubr
          92 2123 -92 callgsubr
          endchar
        </CharString>
        <CharString name="Ljecyrillic">
          837 707 rmoveto
          28 hlineto
          76 42 -76 109 callgsubr
          -42 -76 -76 hvcurveto
          -28 hlineto
          -401 894 rmoveto
          127 -1177 340 hlineto
          226 137 168 325 325 -137 168 -226 hvcurveto
          -43 457 -705 hlineto
          -20 -871 rlineto
          -225 -5 -18 -58 -69 hhcurveto
          -14 -19 4 2 -10 hvcurveto
          -295 vlineto
          -6 19 38 -8 35 hhcurveto
          239 81 149 431 10 hvcurveto
          endchar
        </CharString>
        <CharString name="Llinebelow">
          -34 callsubr
          -101 -427 -92 callgsubr
          endchar
        </CharString>
        <CharString name="Lslash">
          568 303 rmoveto
          350 vlineto
          510 268 rlineto
          280 vlineto
          -510 -268 rlineto
          510 -361 -700 vlineto
          -121 -64 rlineto
          -280 vlineto
          121 64 rlineto
          -463 954 303 vlineto
          endchar
        </CharString>
        <CharString name="M">
          -74 callgsubr
          endchar
        </CharString>
        <CharString name="Macute">
          -74 callgsubr
          97 -4 callgsubr
          endchar
        </CharString>
        <CharString name="Mdotaccent">
          -74 callgsubr
          256 1571 rmoveto
          -32 callgsubr
        </CharString>
        <CharString name="Mdotbelow">
          -74 callgsubr
          256 7 callsubr
          endchar
        </CharString>
        <CharString name="Mugreek">
          -74 callgsubr
          endchar
        </CharString>
        <CharString name="N">
          419 hmoveto
          38 callsubr
        </CharString>
        <CharString name="Nacute">
          419 hmoveto
          -74 callsubr
          366 -4 callgsubr
          endchar
        </CharString>
        <CharString name="Ncaron">
          1073 -93 callsubr
          -379 -1585 37 callgsubr
        </CharString>
        <CharString name="Ncircumflexbelow">
          419 hmoveto
          -74 callsubr
          348 -156 rmoveto
          -17 callgsubr
        </CharString>
        <CharString name="Ncommaaccent">
          419 hmoveto
          -74 callsubr
          514 -504 -55 callsubr
        </CharString>
        <CharString name="Ndotaccent">
          419 hmoveto
          -74 callsubr
          525 1571 rmoveto
          -32 callgsubr
        </CharString>
        <CharString name="Ndotbelow">
          419 hmoveto
          -74 callsubr
          525 7 callsubr
          endchar
        </CharString>
        <CharString name="Ngrave">
          536 -42 callsubr
          -375 -1596 37 callgsubr
        </CharString>
        <CharString name="Njecyrillic">
          807 621 rmoveto
          48 hlineto
          78 40 -64 -124 -122 -39 -60 -79 hvcurveto
          -48 hlineto
          -486 -251 rmoveto
          611 212 -611 350 vlineto
          231 132 161 282 281 -132 168 -221 hvcurveto
          -73 551 -287 -551 -212 551 -287 33 callsubr
          endchar
        </CharString>
        <CharString name="Nlinebelow">
          419 hmoveto
          -74 callsubr
          907 -427 -92 callgsubr
          endchar
        </CharString>
        <CharString name="Ntilde">
          419 hmoveto
          -74 callsubr
          689 10 callsubr
          endchar
        </CharString>
        <CharString name="Nugreek">
          419 hmoveto
          38 callsubr
        </CharString>
        <CharString name="NumberSignCyrillic">
          35 callgsubr
          964 1112 rmoveto
          95 76 77 95 95 -76 77 -95 -95 -76 -77 -95 -95 76 -77 95 hvcurveto
          167 -269 rmoveto
          124 -336 -124 vlineto
          endchar
        </CharString>
        <CharString name="O">
          -106 callgsubr
          endchar
        </CharString>
        <CharString name="OE">
          382 789 rmoveto
          212 39 84 99 111 37 -74 -222 vhcurveto
          -135 vlineto
          -222 -37 -74 -111 -99 -39 84 212 vhcurveto
          296 -449 rmoveto
          15 -205 573 323 -292 249 255 300 -255 247 292 324 -573 -215 -15 hlineto
          175 -42 -77 74 -165 hhcurveto
          -240 -104 -196 -449 hvcurveto
          -221 vlineto
          -449 104 -196 240 168 76 70 169 40 vhcurveto
          endchar
        </CharString>
        <CharString name="Oacute">
          -106 callgsubr
          -159 1321 -80 callgsubr
          endchar
        </CharString>
        <CharString name="Obreve">
          -106 callgsubr
          -418 1657 -55 callgsubr
        </CharString>
        <CharString name="Ocaron">
          1073 -93 callsubr
          -367 -761 -96 callgsubr
        </CharString>
        <CharString name="Ocircumflex">
          -106 callgsubr
          165 1671 -82 callgsubr
          endchar
        </CharString>
        <CharString name="Ocircumflexacute">
          -106 callgsubr
          258 1622 rmoveto
          271 hlineto
          194 315 rlineto
          -303 hlineto
          -250 -356 -70 callsubr
          endchar
        </CharString>
        <CharString name="Ocircumflexdotbelow">
          -106 callgsubr
          165 1671 -82 callgsubr
          -440 -2087 rmoveto
          -32 callgsubr
        </CharString>
        <CharString name="Ocircumflexgrave">
          -106 callgsubr
          576 1622 31 callsubr
          -135 -41 -70 callsubr
          endchar
        </CharString>
        <CharString name="Ocircumflexhookabove">
          -106 callgsubr
          162 1773 -46 callgsubr
        </CharString>
        <CharString name="Ocircumflextilde">
          -106 callgsubr
          170 1581 -49 callsubr
        </CharString>
        <CharString name="Ocyrillic">
          -106 callgsubr
          endchar
        </CharString>
        <CharString name="Odblgrave">
          759 -48 callgsubr
          -99 -772 -96 callgsubr
        </CharString>
        <CharString name="Odieresis">
          -106 callgsubr
          -253 1325 rmoveto
          -107 callsubr
          506 hmoveto
          -107 callsubr
          endchar
        </CharString>
        <CharString name="Odieresismacron">
          888 65 callsubr
          -644 91 29 callgsubr
          138 -287 rmoveto
          -76 callsubr
          49 -1076 -96 callgsubr
        </CharString>
        <CharString name="Odotaccent">
          -106 callgsubr
          1296 -36 callsubr
        </CharString>
        <CharString name="Odotaccentmacron">
          36 callsubr
          187 -1363 -96 callgsubr
        </CharString>
        <CharString name="Odotbelow">
          -106 callgsubr
          -766 -36 callsubr
        </CharString>
        <CharString name="Ograve">
          536 -42 callsubr
          -363 -772 -96 callgsubr
        </CharString>
        <CharString name="Ohookabove">
          -106 callgsubr
          -223 1568 20 callsubr
        </CharString>
        <CharString name="Ohorn">
          633 -29 -81 callgsubr
        </CharString>
        <CharString name="Ohornacute">
          423 -4 callgsubr
          -48 -1951 -81 callgsubr
        </CharString>
        <CharString name="Ohorndotbelow">
          633 -29 -81 callsubr
          -766 -36 callsubr
        </CharString>
        <CharString name="Ohorngrave">
          431 824 rmoveto
          236 63 108 139 139 63 -108 -236 vhcurveto
          -205 vlineto
          -236 -63 -108 -139 -139 -63 108 236 vhcurveto
          777 209 rmoveto
          172 -22 103 -55 82 vhcurveto
          18 62 vlineto
          142 78 80 144 hvcurveto
          251 -269 -174 vlineto
          -58 -37 -30 -71 vhcurveto
          -182 -35 56 -186 94 callgsubr
          0 callgsubr
          -663 1307 92 callgsubr
        </CharString>
        <CharString name="Ohornhookabove">
          15 callgsubr
          223 -2040 -81 callgsubr
        </CharString>
        <CharString name="Ohorntilde">
          6 callsubr
          -164 -1606 -81 callgsubr
        </CharString>
        <CharString name="Ohungarumlaut">
          -106 callgsubr
          79 1321 3 callgsubr
        </CharString>
        <CharString name="Oinvertedbreve">
          451 -56 callgsubr
          216 -757 -96 callgsubr
        </CharString>
        <CharString name="Omacron">
          -106 callgsubr
          382 1357 -92 callgsubr
          endchar
        </CharString>
        <CharString name="Omacronacute">
          791 5 callsubr
          189 -783 -96 callgsubr
        </CharString>
        <CharString name="Omacrongrave">
          -106 callgsubr
          391 1332 11 callsubr
        </CharString>
        <CharString name="Omegagreek">
          633 1472 rmoveto
          -383 -217 -235 -416 -227 86 -172 170 -120 hvcurveto
          -19 -256 -283 544 360 vlineto
          -146 85 -45 112 233 vvcurveto
          252 77 126 170 170 76 -126 -252 -233 -44 -112 -146 -85 vhcurveto
          -360 544 283 -256 19 vlineto
          170 120 86 172 227 vvcurveto
          416 -217 235 -383 vhcurveto
          endchar
        </CharString>
        <CharString name="Omegatonosgreek">
          787 1472 rmoveto
          -305 -158 -217 -419 -294 48 -196 148 -77 hvcurveto
          -19 -199 -250 408 420 vlineto
          -87 72 -19 64 275 vvcurveto
          238 47 99 117 117 47 -99 -238 -272 -20 -67 -87 -72 vhcurveto
          -420 408 250 -198 19 vlineto
          148 78 48 196 293 vvcurveto
          419 -158 217 -305 vhcurveto
          -792 -423 -14 callgsubr
        </CharString>
        <CharString name="Omicrongreek">
          -106 callgsubr
          endchar
        </CharString>
        <CharString name="Omicrontonosgreek">
          1191 615 rmoveto
          213 vlineto
          442 -133 202 -292 -292 -133 -202 -442 vhcurveto
          -213 vlineto
          -442 133 -202 292 292 133 202 442 vhcurveto
          -425 -340 rmoveto
          -86 -36 90 214 hvcurveto
          285 vlineto
          214 36 90 86 86 36 -90 -214 vhcurveto
          -285 vlineto
          -214 -36 -90 -86 vhcurveto
          -751 774 -14 callgsubr
        </CharString>
        <CharString name="Oogonek">
          633 275 -44 callsubr
        </CharString>
        <CharString name="Oogonekmacron">
          1015 34 callsubr
          382 -1357 -44 callsubr
        </CharString>
        <CharString name="Oslash">
          835 619 -44 callgsubr
        </CharString>
        <CharString name="Oslashacute">
          943 -5 callgsubr
          196 -977 -44 callgsubr
        </CharString>
        <CharString name="Otilde">
          -106 callgsubr
          164 1302 -91 callsubr
          endchar
        </CharString>
        <CharString name="Otildeacute">
          -106 callgsubr
          -133 1687 rmoveto
          288 hlineto
          158 250 rlineto
          -319 hlineto
          167 -653 -68 callgsubr
          endchar
        </CharString>
        <CharString name="Otildedieresis">
          -106 callgsubr
          161 1284 -68 callgsubr
          -414 355 rmoveto
          18 callgsubr
          506 hmoveto
          18 callgsubr
          endchar
        </CharString>
        <CharString name="Otildemacron">
          -106 callgsubr
          391 1733 rmoveto
          196 -782 -196 vlineto
          552 -449 -68 callgsubr
          endchar
        </CharString>
        <CharString name="P">
          -61 callgsubr
          endchar
        </CharString>
        <CharString name="Pacute">
          -61 callgsubr
          -56 894 -80 callgsubr
          endchar
        </CharString>
        <CharString name="Pdotaccent">
          -61 callgsubr
          103 869 rmoveto
          -32 callgsubr
        </CharString>
        <CharString name="Pecyrillic">
          1211 46 callsubr
          -1156 -64 callsubr
          366 1148 424 -1148 366 hlineto
          endchar
        </CharString>
        <CharString name="Phigreek">
          479 -131 rmoveto
          308 185 hlineto
          286 20 160 236 402 vvcurveto
          402 -160 236 -286 20 vhcurveto
          185 -308 -185 vlineto
          -286 -20 -160 -236 -402 vvcurveto
          -402 160 -236 286 -20 vhcurveto
          13 240 rmoveto
          -116 24 -57 137 257 vvcurveto
          257 57 137 116 24 vhcurveto
          282 -836 rmoveto
          836 vlineto
          115 -24 58 -141 -253 vvcurveto
          -257 -57 -137 -116 -24 vhcurveto
          endchar
        </CharString>
        <CharString name="Pigreek">
          96 hmoveto
          366 1148 342 -1148 366 -51 callgsubr
          -1074 hlineto
          endchar
        </CharString>
        <CharString name="Psigreek">
          462 hmoveto
          343 283 hlineto
          314 39 83 105 399 vvcurveto
          617 -294 -584 vlineto
          -250 -21 -53 -107 -15 vhcurveto
          902 -294 -902 vlineto
          -107 15 -21 53 250 vvcurveto
          584 -294 -617 vlineto
          -399 82 -104 316 -40 vhcurveto
          endchar
        </CharString>
        <CharString name="Q">
          420 807 rmoveto
          247 67 114 146 146 67 -114 -247 vhcurveto
          -194 vlineto
          -58 -4 -50 -7 -44 vhcurveto
          -318 hlineto
          116 -209 rlineto
          -146 -67 114 247 hvcurveto
          788 215 rmoveto
          403 -215 241 -360 -360 -215 -241 -403 vhcurveto
          -213 vlineto
          -403 215 -241 360 52 49 5 10 46 vhcurveto
          77 -139 rlineto
          332 hlineto
          -152 275 rlineto
          110 111 61 168 214 vvcurveto
          endchar
        </CharString>
        <CharString name="R">
          -88 callsubr
          endchar
        </CharString>
        <CharString name="Racute">
          -88 callsubr
          -91 1091 -80 callgsubr
          endchar
        </CharString>
        <CharString name="Rcaron">
          988 -93 callsubr
          -124 -1080 -40 callsubr
        </CharString>
        <CharString name="Rcommaaccent">
          -88 callsubr
          218 -1008 -55 callsubr
        </CharString>
        <CharString name="Rdblgrave">
          674 -48 callgsubr
          144 -1091 -40 callsubr
        </CharString>
        <CharString name="Rdotaccent">
          -88 callsubr
          68 1066 rmoveto
          -32 callgsubr
        </CharString>
        <CharString name="Rdotbelow">
          -88 callsubr
          169 -995 rmoveto
          -32 callgsubr
        </CharString>
        <CharString name="Rdotbelowmacron">
          -88 callsubr
          169 -995 rmoveto
          -105 callsubr
          281 2122 -92 callgsubr
          endchar
        </CharString>
        <CharString name="Rhogreek">
          -61 callgsubr
          endchar
        </CharString>
        <CharString name="Rinvertedbreve">
          366 -56 callgsubr
          459 -1076 -40 callsubr
        </CharString>
        <CharString name="Rlinebelow">
          -88 callsubr
          551 -931 -92 callgsubr
          endchar
        </CharString>
        <CharString name="S">
          62 416 -102 callgsubr
          endchar
        </CharString>
        <CharString name="Sacute">
          62 416 -102 callgsubr
          71 1180 -80 callgsubr
          endchar
        </CharString>
        <CharString name="Sacutedotaccent">
          62 416 -102 callgsubr
          197 1180 -80 callgsubr
          -479 -335 rmoveto
          -32 callgsubr
        </CharString>
        <CharString name="Scaron">
          1073 -93 callsubr
          -736 -1169 -102 callgsubr
          endchar
        </CharString>
        <CharString name="Scarondotaccent">
          62 416 -102 callgsubr
          230 1518 9 callsubr
        </CharString>
        <CharString name="Scedilla">
          636 891 rmoveto
          -131 27 -52 46 88 vvcurveto
          85 71 54 112 118 76 -63 -101 6 vhcurveto
          341 hlineto
          268 -5 -217 177 -323 hhcurveto
          -332 -209 -179 -283 -217 133 -143 256 -55 hvcurveto
          171 -37 rlineto
          145 -31 49 -38 -81 vvcurveto
          -96 -79 -59 -128 -144 -82 57 106 -9 vhcurveto
          -341 hlineto
          5 -251 172 -159 289 -30 -36 -78 rcurveline
          -137 60 vlineto
          -98 callsubr
          31 68 rlineto
          302 29 173 171 273 vvcurveto
          222 -125 127 -278 58 vhcurveto
          endchar
        </CharString>
        <CharString name="Scircumflex">
          62 416 -102 callgsubr
          395 1530 -82 callgsubr
          endchar
        </CharString>
        <CharString name="Scommaaccent">
          62 416 -102 callgsubr
          279 -920 -55 callsubr
        </CharString>
        <CharString name="Sdotaccent">
          62 416 -102 callgsubr
          230 1155 rmoveto
          -32 callgsubr
        </CharString>
        <CharString name="Sdotbelow">
          62 416 -102 callgsubr
          230 -907 rmoveto
          -32 callgsubr
        </CharString>
        <CharString name="Sdotbelowdotaccent">
          62 416 -102 callgsubr
          230 -907 rmoveto
          -105 callsubr
          2062 -36 callsubr
        </CharString>
        <CharString name="Shacyrillic">
          1196 118 callsubr
          -268 -1168 -161 1168 -268 -1168 -161 1168 -268 92 callsubr
        </CharString>
        <CharString name="Shchacyrillic">
          998 -285 rmoveto
          268 560 -105 1168 -268 -1178 -161 1178 -268 -1178 -161 1178 -268 -64 callsubr
          963 hlineto
          endchar
        </CharString>
        <CharString name="Sigmagreek">
          115 hmoveto
          1046 295 -585 19 hlineto
          261 400 rlineto
          38 vlineto
          -238 377 rlineto
          19 542 295 -1005 -254 vlineto
          314 -466 -335 -509 rlineto
          endchar
        </CharString>
        <CharString name="Softsigncyrillic">
          489 707 rmoveto
          134 hlineto
          137 76 -75 -137 -137 -76 -75 -137 hvcurveto
          -134 hlineto
          232 -283 rmoveto
          293 195 197 296 295 -205 197 -307 hvcurveto
          -208 458 112 callgsubr
          hlineto
          endchar
        </CharString>
        <CharString name="T">
          -24 callgsubr
          endchar
        </CharString>
        <CharString name="Taugreek">
          -24 callgsubr
          endchar
        </CharString>
        <CharString name="Tbar">
          1212 1148 rmoveto
          295 -1158 -295 396 -344 -272 -247 272 -557 366 557 272 247 -272 344 vlineto
          endchar
        </CharString>
        <CharString name="Tcaron">
          1073 -93 callsubr
          18 -1585 rmoveto
          1148 396 295 -1158 -295 396 -1148 vlineto
          endchar
        </CharString>
        <CharString name="Tcedilla">
          -47 callsubr
          89 vlineto
          -47 -102 rlineto
          -137 60 vlineto
          25 callsubr
          endchar
        </CharString>
        <CharString name="Tcircumflexbelow">
          -24 callgsubr
          6 -156 rmoveto
          -17 callgsubr
        </CharString>
        <CharString name="Tcommaaccent">
          -24 callgsubr
          212 -504 -55 callsubr
        </CharString>
        <CharString name="Tdotaccent">
          -24 callgsubr
          183 1571 rmoveto
          -32 callgsubr
        </CharString>
        <CharString name="Tdotbelow">
          -24 callgsubr
          183 7 callsubr
          endchar
        </CharString>
        <CharString name="Tecyrillic">
          -24 callgsubr
          endchar
        </CharString>
        <CharString name="Thetagreek">
          633 275 rmoveto
          -156 -81 118 226 hvcurveto
          205 vlineto
          226 81 118 156 156 81 -118 -226 vhcurveto
          -205 vlineto
          -226 -81 -118 -156 vhcurveto
          575 340 rmoveto
          213 vlineto
          408 -210 236 -365 -365 -210 -236 -408 vhcurveto
          -213 vlineto
          -408 210 -236 365 365 210 236 408 vhcurveto
          -723 -45 rmoveto
          296 290 -296 hlineto
          endchar
        </CharString>
        <CharString name="Thorn">
          155 111 callgsubr
          393 247 154 vlineto
          315 216 201 292 295 -204 200 -302 hvcurveto
          -179 208 hlineto
          -518 vmoveto
          72 hlineto
          141 74 -64 -122 -122 -74 -64 -141 hvcurveto
          -72 hlineto
          endchar
        </CharString>
        <CharString name="Tlinebelow">
          -24 callgsubr
          565 -427 -92 callgsubr
          endchar
        </CharString>
        <CharString name="Tsecyrillic">
          1266 295 rmoveto
          -130 1148 -367 -1148 -319 1148 112 callgsubr
          855 -285 328 hlineto
          endchar
        </CharString>
        <CharString name="Tshecyrillic">
          861 hmoveto
          347 476 hlineto
          279 -112 151 -253 -175 -76 -58 0 vhcurveto
          -15 300 297 295 -874 -295 230 -1148 347 556 hlineto
          0 47 43 99 97 41 -66 -117 vhcurveto
          endchar
        </CharString>
        <CharString name="U">
          -101 callsubr
          endchar
        </CharString>
        <CharString name="Uacute">
          -101 callsubr
          -159 1316 -80 callgsubr
          endchar
        </CharString>
        <CharString name="Ubreve">
          -101 callsubr
          -418 1652 -55 callgsubr
        </CharString>
        <CharString name="Ucaron">
          1073 -93 callsubr
          -356 -142 -61 callsubr
        </CharString>
        <CharString name="Ucircumflex">
          -101 callsubr
          165 1666 -82 callgsubr
          endchar
        </CharString>
        <CharString name="Ucircumflexbelow">
          -101 callsubr
          -177 -436 rmoveto
          -17 callgsubr
        </CharString>
        <CharString name="Ucyrillic">
          1252 1443 -79 callgsubr
          endchar
        </CharString>
        <CharString name="Udblgrave">
          759 -48 callgsubr
          -88 -153 -61 callsubr
        </CharString>
        <CharString name="Udieresis">
          -101 callsubr
          -253 1320 rmoveto
          -107 callsubr
          506 hmoveto
          -107 callsubr
          endchar
        </CharString>
        <CharString name="Udieresisacute">
          -101 callsubr
          -137 1682 rmoveto
          274 hlineto
          185 250 rlineto
          -327 hlineto
          -248 -652 rmoveto
          -107 callsubr
          506 hmoveto
          -107 callsubr
          endchar
        </CharString>
        <CharString name="Udieresisbelow">
          -101 callsubr
          -253 -757 rmoveto
          -107 callsubr
          506 hmoveto
          -107 callsubr
          endchar
        </CharString>
        <CharString name="Udieresiscaron">
          -101 callsubr
          155 1649 rmoveto
          269 326 rlineto
          -285 hlineto
          -128 -178 rlineto
          -22 hlineto
          -128 178 rlineto
          -285 hlineto
          269 -326 rlineto
          -98 -369 rmoveto
          -107 callsubr
          506 hmoveto
          -107 callsubr
          endchar
        </CharString>
        <CharString name="Udieresisgrave">
          382 1560 rmoveto
          -107 callsubr
          506 hmoveto
          -107 callsubr
          -248 652 rmoveto
          -327 hlineto
          185 -250 rlineto
          274 hlineto
          -330 -519 -61 callsubr
        </CharString>
        <CharString name="Udieresismacron">
          888 65 callsubr
          -644 91 29 callgsubr
          138 -287 rmoveto
          -76 callsubr
          60 -457 -61 callsubr
        </CharString>
        <CharString name="Udotbelow">
          -101 callsubr
          -771 -36 callsubr
        </CharString>
        <CharString name="Ugrave">
          536 -42 callsubr
          -352 -153 -61 callsubr
        </CharString>
        <CharString name="Uhookabove">
          -101 callsubr
          -223 1563 20 callsubr
        </CharString>
        <CharString name="Uhorn">
          613 -29 -67 callsubr
        </CharString>
        <CharString name="Uhornacute">
          373 -4 callgsubr
          -18 -1951 -67 callsubr
        </CharString>
        <CharString name="Uhorndotbelow">
          25 callgsubr
          -20 462 -67 callsubr
        </CharString>
        <CharString name="Uhorngrave">
          1141 1215 rmoveto
          10 hlineto
          151 89 84 143 hvcurveto
          266 -269 -194 vlineto
          -43 -33 -28 -51 vhcurveto
          -264 -936 hlineto
          -150 -55 -77 -106 -106 -55 77 150 vhcurveto
          936 -367 -926 vlineto
          -355 185 -191 343 343 185 191 355 vhcurveto
          -626 1405 92 callgsubr
        </CharString>
        <CharString name="Uhornhookabove">
          15 callgsubr
          203 -2040 -67 callsubr
        </CharString>
        <CharString name="Uhorntilde">
          6 callsubr
          -184 -1606 -67 callsubr
        </CharString>
        <CharString name="Uhungarumlaut">
          -101 callsubr
          79 1316 3 callgsubr
        </CharString>
        <CharString name="Uinvertedbreve">
          451 -56 callgsubr
          227 -138 -61 callsubr
        </CharString>
        <CharString name="Umacron">
          -101 callsubr
          382 1352 -92 callgsubr
          endchar
        </CharString>
        <CharString name="Umacrondieresis">
          -101 callsubr
          -253 1614 rmoveto
          -107 callsubr
          -138 -287 29 callgsubr
          644 91 rmoveto
          -107 callsubr
          endchar
        </CharString>
        <CharString name="Uogonek">
          879 -469 114 callsubr
          -6 -24 -18 -2 -29 hhcurveto
          -76 -45 43 75 70 42 60 101 76 hvcurveto
          142 107 63 144 217 vvcurveto
          926 -367 -906 vlineto
          -168 -66 -89 -125 -125 -66 89 168 vhcurveto
          906 -367 -926 vlineto
          -338 197 -208 322 37 56 8 9 32 vhcurveto
          -19 vlineto
          -95 -69 -36 -59 -87 vvcurveto
          -132 119 -91 172 vhcurveto
          endchar
        </CharString>
        <CharString name="Upsilondieresisgreek">
          -89 callgsubr
          -70 1600 rmoveto
          -107 callsubr
          506 hmoveto
          -107 callsubr
          endchar
        </CharString>
        <CharString name="Upsilongreek">
          -89 callgsubr
          endchar
        </CharString>
        <CharString name="Upsilontonosgreek">
          1006 hmoveto
          476 vlineto
          280 967 rlineto
          -331 hlineto
          -102 -589 rlineto
          -20 hlineto
          -102 589 rlineto
          -331 hlineto
          280 -967 rlineto
          -476 vlineto
          -685 1049 -14 callgsubr
        </CharString>
        <CharString name="Uring">
          -101 callsubr
          1 1263 -25 callgsubr
          -1 112 rmoveto
          -51 -39 38 51 51 39 38 51 51 39 -38 -51 -50 -37 -39 -53 hvcurveto
          endchar
        </CharString>
        <CharString name="Ushortcyrillic">
          1252 1443 -79 callgsubr
          -615 1545 -99 callgsubr
          endchar
        </CharString>
        <CharString name="Utilde">
          -101 callsubr
          164 1297 -91 callsubr
          endchar
        </CharString>
        <CharString name="Utildeacute">
          -101 callsubr
          -133 1682 rmoveto
          288 hlineto
          158 250 rlineto
          -319 hlineto
          167 -653 -68 callgsubr
          endchar
        </CharString>
        <CharString name="Utildebelow">
          -101 callsubr
          -124 -617 -104 callsubr
          endchar
        </CharString>
        <CharString name="V">
          -6 callsubr
          endchar
        </CharString>
        <CharString name="Vdotbelow">
          -6 callsubr
          -269 -1934 rmoveto
          -32 callgsubr
        </CharString>
        <CharString name="Vecyrillic">
          -93 callgsubr
          endchar
        </CharString>
        <CharString name="Vtilde">
          -6 callsubr
          -105 134 -91 callsubr
          endchar
        </CharString>
        <CharString name="W">
          642 824 -90 callsubr
          endchar
        </CharString>
        <CharString name="Wacute">
          642 824 -90 callsubr
          -149 772 -80 callgsubr
          endchar
        </CharString>
        <CharString name="Wcircumflex">
          642 824 -90 callsubr
          175 1122 -82 callgsubr
          endchar
        </CharString>
        <CharString name="Wdieresis">
          642 824 -90 callsubr
          -243 776 rmoveto
          -107 callsubr
          506 hmoveto
          -107 callsubr
          endchar
        </CharString>
        <CharString name="Wdotaccent">
          642 824 -90 callsubr
          10 747 rmoveto
          -32 callgsubr
        </CharString>
        <CharString name="Wdotbelow">
          642 824 -90 callsubr
          9 -1315 rmoveto
          -32 callgsubr
        </CharString>
        <CharString name="Wgrave">
          537 -42 callsubr
          -153 -772 -90 callsubr
          endchar
        </CharString>
        <CharString name="X">
          -60 callsubr
          endchar
        </CharString>
        <CharString name="Xacyrillic">
          -60 callsubr
          endchar
        </CharString>
        <CharString name="Xdieresis">
          -60 callsubr
          -25 872 rmoveto
          -107 callsubr
          506 hmoveto
          -107 callsubr
          endchar
        </CharString>
        <CharString name="Xdotaccent">
          -60 callsubr
          228 843 rmoveto
          -32 callgsubr
        </CharString>
        <CharString name="Xigreek">
          133 hmoveto
          1000 304 -1000 hlineto
          87 263 rmoveto
          826 300 -826 hlineto
          -87 272 rmoveto
          1000 304 -1000 hlineto
          endchar
        </CharString>
        <CharString name="Y">
          -89 callgsubr
          endchar
        </CharString>
        <CharString name="Yacute">
          -89 callgsubr
          14 -4 callgsubr
          endchar
        </CharString>
        <CharString name="Ycircumflex">
          -89 callgsubr
          348 1946 -82 callgsubr
          endchar
        </CharString>
        <CharString name="Ydieresis">
          -89 callgsubr
          -70 1600 rmoveto
          -107 callsubr
          506 hmoveto
          -107 callsubr
          endchar
        </CharString>
        <CharString name="Ydotaccent">
          -89 callgsubr
          183 1571 rmoveto
          -32 callgsubr
        </CharString>
        <CharString name="Ydotbelow">
          -89 callgsubr
          183 7 callsubr
          endchar
        </CharString>
        <CharString name="Yericyrillic">
          332 707 -64 callgsubr
        </CharString>
        <CharString name="Ygrave">
          546 -42 callsubr
          12 -1596 rmoveto
          496 vlineto
          450 947 30 callsubr
          -232 -589 rlineto
          -20 hlineto
          -232 589 30 callsubr
          450 -947 rlineto
          -496 vlineto
          endchar
        </CharString>
        <CharString name="Yhookabove">
          -89 callgsubr
          -40 1843 20 callsubr
        </CharString>
        <CharString name="Yicyrillic">
          1120 hmoveto
          -89 callsubr
          234 1600 rmoveto
          -107 callsubr
          506 hmoveto
          -107 callsubr
          endchar
        </CharString>
        <CharString name="Ymacron">
          -89 callgsubr
          565 34 callsubr
          endchar
        </CharString>
        <CharString name="Ytilde">
          -89 callgsubr
          347 10 callsubr
          endchar
        </CharString>
        <CharString name="Z">
          130 hmoveto
          -57 callsubr
          endchar
        </CharString>
        <CharString name="Zacute">
          130 hmoveto
          -57 callsubr
          364 1363 -80 callgsubr
          endchar
        </CharString>
        <CharString name="Zcaron">
          1093 -93 callsubr
          -688 -1585 rmoveto
          -57 callsubr
          endchar
        </CharString>
        <CharString name="Zcircumflex">
          130 hmoveto
          -57 callsubr
          688 1713 -82 callgsubr
          endchar
        </CharString>
        <CharString name="Zdotaccent">
          130 hmoveto
          -57 callsubr
          523 1338 rmoveto
          -32 callgsubr
        </CharString>
        <CharString name="Zdotbelow">
          130 hmoveto
          -57 callsubr
          503 -724 rmoveto
          -32 callgsubr
        </CharString>
        <CharString name="Zecyrillic">
          453 593 -62 callsubr
          endchar
        </CharString>
        <CharString name="Zetagreek">
          130 hmoveto
          -57 callsubr
          endchar
        </CharString>
        <CharString name="Zhecyrillic">
          -43 callgsubr
          endchar
        </CharString>
        <CharString name="Zlinebelow">
          130 hmoveto
          -57 callsubr
          885 -660 -92 callgsubr
          endchar
        </CharString>
        <CharString name="a">
          -107 callgsubr
          endchar
        </CharString>
        <CharString name="aacute">
          775 -92 callsubr
          322 -819 -99 callsubr
        </CharString>
        <CharString name="abreve">
          -107 callgsubr
          31 1222 rmoveto
          -97 callgsubr
          endchar
        </CharString>
        <CharString name="abreveacute">
          -107 callgsubr
          -65 1397 rmoveto
          217 hlineto
          240 351 rlineto
          -278 hlineto
          -53 -526 rmoveto
          -97 callgsubr
          endchar
        </CharString>
        <CharString name="abrevedotbelow">
          -107 callgsubr
          61 1222 rmoveto
          -97 callgsubr
          -30 -1957 rmoveto
          -32 callgsubr
        </CharString>
        <CharString name="abrevegrave">
          226 10 callgsubr
          4 -1164 -99 callsubr
        </CharString>
        <CharString name="abrevehookabove">
          -107 callgsubr
          61 1220 rmoveto
          -97 callgsubr
          -243 376 -95 callgsubr
          endchar
        </CharString>
        <CharString name="abrevetilde">
          -107 callgsubr
          61 1221 rmoveto
          -97 callgsubr
          -124 357 -104 callsubr
          endchar
        </CharString>
        <CharString name="acaron">
          820 1296 -91 callgsubr
          307 -819 -99 callsubr
        </CharString>
        <CharString name="acircumflex">
          -107 callgsubr
          -116 1388 rmoveto
          -17 callgsubr
        </CharString>
        <CharString name="acircumflexacute">
          -107 callgsubr
          294 1388 rmoveto
          262 hlineto
          239 351 rlineto
          -309 hlineto
          -602 -351 rmoveto
          -17 callgsubr
        </CharString>
        <CharString name="acircumflexdotbelow">
          -107 callgsubr
          -116 1388 rmoveto
          -103 callgsubr
          -207 -2123 rmoveto
          -32 callgsubr
        </CharString>
        <CharString name="acircumflexgrave">
          -107 callgsubr
          635 1388 -45 callsubr
        </CharString>
        <CharString name="acircumflexhookabove">
          -107 callgsubr
          -116 1388 rmoveto
          -103 callgsubr
          -17 199 -95 callgsubr
          endchar
        </CharString>
        <CharString name="acircumflextilde">
          -107 callgsubr
          -67 1587 -65 callsubr
        </CharString>
        <CharString name="acute">
          649 -92 callsubr
          endchar
        </CharString>
        <CharString name="acutecmb">
          -107 132 -92 callsubr
          endchar
        </CharString>
        <CharString name="acutecmb.short">
          323 -4 callgsubr
          endchar
        </CharString>
        <CharString name="acutedotaccentcmb">
          400 1268 rmoveto
          -105 callsubr
          540 20 rmoveto
          292 19 callsubr
          -243 -362 rlineto
          endchar
        </CharString>
        <CharString name="acutedotaccentcmb.short">
          600 -4 callgsubr
          -479 -335 rmoveto
          -32 callgsubr
        </CharString>
        <CharString name="acyrillic">
          -107 callgsubr
          endchar
        </CharString>
        <CharString name="adblgrave">
          835 -56 callsubr
          216 -819 -99 callsubr
        </CharString>
        <CharString name="adieresis">
          -107 callgsubr
          -169 1035 rmoveto
          -107 callsubr
          506 hmoveto
          -107 callsubr
          endchar
        </CharString>
        <CharString name="adieresismacron">
          896 -28 callsubr
          512 -1239 -99 callsubr
        </CharString>
        <CharString name="adotaccent">
          -107 callgsubr
          61 1028 rmoveto
          -32 callgsubr
        </CharString>
        <CharString name="adotbelow">
          -107 callgsubr
          31 -735 rmoveto
          -32 callgsubr
        </CharString>
        <CharString name="adotmacron">
          -107 callgsubr
          443 1475 -92 callgsubr
          382 -480 rmoveto
          -32 callgsubr
        </CharString>
        <CharString name="ae">
          1233 399 rmoveto
          -251 hlineto
          -83 callgsubr
          -287 302 rmoveto
          -179 hlineto
          32 callgsubr
          -567 -443 rmoveto
          -44 -28 33 50 56 45 49 57 7 hvcurveto
          87 12 rlineto
          -31 vlineto
          -110 -45 -66 -72 vhcurveto
          endchar
        </CharString>
        <CharString name="aeacute">
          771 -92 callsubr
          49 -831 rmoveto
          -31 vlineto
          -110 -45 -66 -72 -44 -28 33 50 56 45 49 57 7 vhcurveto
          358 248 rmoveto
          32 callgsubr
          36 -302 rmoveto
          -83 callgsubr
          endchar
        </CharString>
        <CharString name="aemacron">
          1233 399 rmoveto
          -251 hlineto
          -83 callgsubr
          -287 302 rmoveto
          -179 hlineto
          32 callgsubr
          -567 -443 rmoveto
          -44 -28 33 50 56 45 49 57 7 hvcurveto
          87 12 rlineto
          -31 vlineto
          -110 -45 -66 -72 vhcurveto
          642 1089 -92 callgsubr
          endchar
        </CharString>
        <CharString name="agrave">
          -107 callgsubr
          331 1052 -54 callsubr
          endchar
        </CharString>
        <CharString name="ahookabove">
          -107 callgsubr
          -136 1272 -95 callgsubr
          endchar
        </CharString>
        <CharString name="ainvertedbreve">
          1060 -60 callgsubr
          -43 -783 -99 callsubr
        </CharString>
        <CharString name="alphagreek">
          417 662 -29 callsubr
        </CharString>
        <CharString name="alphatonosgreek">
          449 55 callgsubr
          -112 -1000 -29 callsubr
        </CharString>
        <CharString name="amacron">
          -107 callgsubr
          443 1103 -92 callgsubr
          endchar
        </CharString>
        <CharString name="ampersand">
          913 hmoveto
          357 hlineto
          -255 303 rlineto
          70 80 50 157 140 vvcurveto
          67 -268 -39 vlineto
          -76 -10 -61 -16 -22 vhcurveto
          -188 219 rlineto
          151 98 85 130 133 vvcurveto
          202 -152 141 -218 -229 -160 -141 -202 -115 52 -109 112 -118 vhcurveto
          -63 -38 rlineto
          -153 -92 -73 -123 -163 vvcurveto
          -231 187 -169 257 143 140 47 79 97 vhcurveto
          -424 480 rmoveto
          24 17 250 -297 rlineto
          -45 -49 -61 -23 -72 hhcurveto
          -108 -78 74 104 67 36 66 58 37 hvcurveto
          104 651 rmoveto
          62 46 -46 -64 -64 -43 -69 -68 -51 hvcurveto
          -67 66 -38 67 51 vvcurveto
          64 46 46 62 vhcurveto
          endchar
        </CharString>
        <CharString name="anoteleia">
          634 715 53 callsubr
        </CharString>
        <CharString name="aogonek">
          582 244 rmoveto
          -81 -52 40 63 69 54 39 109 9 hvcurveto
          161 13 rlineto
          -51 vlineto
          -111 -75 -71 -116 vhcurveto
          205 -244 rmoveto
          -108 -66 -49 -78 -101 vvcurveto
          -138 125 -96 180 63 79 12 16 44 vhcurveto
          188 vlineto
          -5 -19 -34 -4 -29 hhcurveto
          -77 -49 38 59 72 66 65 104 28 hvcurveto
          38 10 rlineto
          752 vlineto
          249 -168 138 -305 -291 -193 -134 -216 -20 vhcurveto
          343 hlineto
          55 18 58 35 73 hhcurveto
          84 53 -45 -71 hvcurveto
          -83 vlineto
          -228 -17 rlineto
          -290 -22 -151 -118 -203 vvcurveto
          -201 141 -136 209 134 113 58 97 56 vhcurveto
          30 hlineto
          endchar
        </CharString>
        <CharString name="approxequal">
          472 741 rmoveto
          49 46 -40 -41 54 hvcurveto
          -42 58 66 -40 96 callsubr
          -66 -1 -12 -73 -78 hhcurveto
          -51 -41 37 41 -53 hvcurveto
          40 -53 -61 37 -95 hhcurveto
          -207 -92 -179 -275 -1 hvcurveto
          249 hlineto
          63 4 15 80 68 hhcurveto
          -524 vmoveto
          49 46 -39 -43 54 hvcurveto
          -42 58 66 -39 96 callsubr
          -65 -1 -12 -74 -78 hhcurveto
          -51 -41 37 40 -53 hvcurveto
          41 -53 -61 37 -95 hhcurveto
          -207 -92 -180 -273 -1 hvcurveto
          249 hlineto
          62 4 15 80 68 hhcurveto
          endchar
        </CharString>
        <CharString name="aring">
          -107 callgsubr
          61 1148 -85 callgsubr
        </CharString>
        <CharString name="aringacute">
          760 -9 callsubr
          130 -890 -99 callsubr
        </CharString>
        <CharString name="aringbelow">
          -107 callgsubr
          31 -681 -85 callgsubr
        </CharString>
        <CharString name="arrowleftright">
          833 199 rmoveto
          522 519 -522 519 -179 -172 133 -120 169 -97 rlineto
          -27 vlineto
          -249 25 rlineto
          -148 hlineto
          -249 -25 rlineto
          27 vlineto
          169 97 133 120 -179 172 -522 -519 522 -519 179 172 -133 120 -169 97 rlineto
          27 vlineto
          249 -25 rlineto
          148 hlineto
          249 25 rlineto
          -27 vlineto
          -169 -97 -133 -120 rlineto
          endchar
        </CharString>
        <CharString name="asciicircum">
          624 1036 rmoveto
          19 hlineto
          225 -476 rlineto
          375 hlineto
          -455 883 rlineto
          -308 hlineto
          -455 -883 rlineto
          376 hlineto
          endchar
        </CharString>
        <CharString name="asciitilde">
          423 996 rmoveto
          -203 -126 -165 -264 -1 hvcurveto
          -22 2 -21 2 -23 vhcurveto
          277 hlineto
          122 32 56 66 37 26 -16 -51 51 vhcurveto
          -97 99 71 -36 93 hhcurveto
          201 124 169 263 1 hvcurveto
          20 -2 21 -2 23 vhcurveto
          -275 hlineto
          -120 -2 -31 -58 -65 hhcurveto
          -34 -30 17 48 -49 hvcurveto
          100 -102 -67 34 -93 hhcurveto
          endchar
        </CharString>
        <CharString name="asterisk">
          1219 823 rmoveto
          -137 237 -332 -216 20 397 rlineto
          -274 hlineto
          20 -397 -332 217 -137 -238 353 -180 -353 -180 137 -237 333 215 -21 -396 rlineto
          274 hlineto
          -21 397 333 -217 137 238 -354 180 rlineto
          endchar
        </CharString>
        <CharString name="at">
          694 -209 rmoveto
          75 97 15 18 47 hvcurveto
          163 vlineto
          -15 -38 -82 -9 -92 hhcurveto
          -313 -119 177 462 hvcurveto
          84 vlineto
          455 102 167 277 266 105 -160 -405 vhcurveto
          -236 vlineto
          -67 -29 -28 -70 vhcurveto
          -117 450 hlineto
          90 -55 60 -82 -82 -55 -60 -90 vhcurveto
          -451 vlineto
          -90 55 -60 82 vhcurveto
          299 hlineto
          150 80 93 173 hvcurveto
          260 vlineto
          471 -175 224 -369 -392 -176 -250 -557 vhcurveto
          -93 vlineto
          -548 187 -243 424 vhcurveto
          endchar
        </CharString>
        <CharString name="atilde">
          -107 callgsubr
          -63 1153 -104 callsubr
          endchar
        </CharString>
        <CharString name="austral">
          1286 hmoveto
          -91 328 rlineto
          55 170 -107 hlineto
          -38 138 rlineto
          145 169 -198 hlineto
          -185 638 rlineto
          -468 hlineto
          -186 -638 rlineto
          -197 -169 145 hlineto
          -38 -138 rlineto
          -107 -170 55 hlineto
          -91 -328 rlineto
          363 hlineto
          82 328 rlineto
          416 hlineto
          82 -328 rlineto
          -452 498 rmoveto
          39 155 rlineto
          246 hlineto
          39 -155 rlineto
          -153 611 rmoveto
          77 -321 rlineto
          -172 hlineto
          77 321 rlineto
          endchar
        </CharString>
        <CharString name="b">
          -69 callsubr
          endchar
        </CharString>
        <CharString name="backslash">
          1147 -270 rmoveto
          -661 1983 rlineto
          -367 hlineto
          671 -1983 rlineto
          endchar
        </CharString>
        <CharString name="baht">
          650 625 rmoveto
          111 -6 56 -63 -119 vvcurveto
          -119 -56 -63 -111 -6 vhcurveto
          -248 hmoveto
          376 110 -376 vlineto
          -110 945 rmoveto
          110 -329 -110 hlineto
          248 327 rmoveto
          86 -10 51 -59 -94 vvcurveto
          -89 -50 -59 -87 -13 vhcurveto
          233 -92 rmoveto
          141 21 106 132 154 vvcurveto
          225 -159 135 -265 vhcurveto
          -56 141 -138 -141 -436 -64 callsubr
          436 -135 138 135 75 hlineto
          283 182 163 253 183 -134 148 -173 10 hvcurveto
          endchar
        </CharString>
        <CharString name="bar">
          813 -483 rmoveto
          2196 -360 -2196 vlineto
          endchar
        </CharString>
        <CharString name="bdotaccent">
          -69 callsubr
          154 1002 rmoveto
          -32 callgsubr
        </CharString>
        <CharString name="bdotbelow">
          -69 callsubr
          -16 -761 rmoveto
          -32 callgsubr
        </CharString>
        <CharString name="becyrillic">
          633 248 rmoveto
          -132 -64 91 185 172 74 104 122 132 64 -91 -185 -185 -64 -91 -132 hvcurveto
          -261 584 rmoveto
          21 253 108 125 217 5 55 1 59 3 66 4 94 6 89 15 40 16 rrcurveto
          267 vlineto
          -35 -10 -51 -7 -153 -17 -79 -9 -63 -5 -57 -3 rrcurveto
          -412 -21 -197 -243 -488 vvcurveto
          -92 vlineto
          -443 184 -215 378 357 199 204 365 334 -170 190 -294 -162 -110 -95 -140 -45 vhcurveto
          endchar
        </CharString>
        <CharString name="betagreek">
          126 -368 rmoveto
          334 567 22 hlineto
          -129 32 105 -89 182 hhcurveto
          242 162 193 262 213 -113 133 -221 45 hvcurveto
          19 vlineto
          129 39 94 126 135 vvcurveto
          248 -188 162 -289 -294 -197 -165 -245 vhcurveto
          532 -888 rmoveto
          -122 -77 83 130 hvcurveto
          652 vlineto
          99 63 66 95 95 63 -66 -99 -104 -70 -67 -108 vhcurveto
          -47 -268 88 hlineto
          128 91 -89 -124 -130 -77 -83 -122 hvcurveto
          endchar
        </CharString>
        <CharString name="bitcoin">
          411 275 rmoveto
          351 202 vlineto
          138 71 -58 -112 -117 -71 -64 -129 hvcurveto
          -211 884 rmoveto
          194 hlineto
          111 61 -53 -96 -99 -67 -57 -117 hvcurveto
          -182 hlineto
          436 -84 rmoveto
          160 24 123 132 149 vvcurveto
          203 -130 120 -235 15 vhcurveto
          208 -161 -207 -157 207 -160 -207 -212 -1394 212 -205 160 205 157 -205 161 205 vlineto
          265 10 161 149 236 vvcurveto
          178 -152 149 -192 9 vhcurveto
          endchar
        </CharString>
        <CharString name="blinebelow">
          -69 callsubr
          366 -697 -92 callgsubr
          endchar
        </CharString>
        <CharString name="braceleft">
          1072 -270 rmoveto
          270 -86 vlineto
          -135 -27 32 159 hvcurveto
          285 vlineto
          135 -94 86 -163 14 vhcurveto
          20 vlineto
          163 14 94 86 135 vvcurveto
          286 vlineto
          159 27 32 135 vhcurveto
          86 270 -180 hlineto
          -324 -108 -100 -299 hvcurveto
          -220 vlineto
          -160 -57 -44 -209 vhcurveto
          -338 vlineto
          209 57 -44 -160 hvcurveto
          -219 vlineto
          -299 108 -100 324 vhcurveto
          endchar
        </CharString>
        <CharString name="braceright">
          374 -270 rmoveto
          324 108 100 299 hvcurveto
          219 vlineto
          160 57 44 209 vhcurveto
          338 vlineto
          -209 -57 44 160 hvcurveto
          220 vlineto
          299 -108 100 -324 vhcurveto
          -180 -270 86 hlineto
          135 27 -32 -159 hvcurveto
          -286 vlineto
          -135 94 -86 163 -14 vhcurveto
          -20 vlineto
          -163 -14 -94 -86 -135 vvcurveto
          -285 vlineto
          -159 -27 -32 -135 vhcurveto
          -86 -270 hlineto
          endchar
        </CharString>
        <CharString name="bracketleft">
          299 1713 rmoveto
          -1983 715 270 -361 -51 callgsubr
          349 270 vlineto
          endchar
        </CharString>
        <CharString name="bracketright">
          311 1713 rmoveto
          -270 349 -64 callsubr
          -361 -270 715 1983 vlineto
          endchar
        </CharString>
        <CharString name="breve">
          633 1424 rmoveto
          -97 callgsubr
          endchar
        </CharString>
        <CharString name="breveacutecmb">
          507 1641 rmoveto
          217 hlineto
          240 351 rlineto
          -278 hlineto
          -53 -526 rmoveto
          -97 callgsubr
          endchar
        </CharString>
        <CharString name="breveacutecmb.short">
          498 1945 rmoveto
          243 hlineto
          219 267 rlineto
          -297 hlineto
          -448 -288 rmoveto
          17 callsubr
          -236 hlineto
          -91 -3 -70 -62 -109 hhcurveto
          -109 -70 62 91 -3 hvcurveto
          endchar
        </CharString>
        <CharString name="brevebelowcmb">
          633 -267 rmoveto
          -97 callgsubr
          endchar
        </CharString>
        <CharString name="brevecmb">
          633 1424 rmoveto
          -97 callgsubr
          endchar
        </CharString>
        <CharString name="brevecmb.short">
          215 1932 -55 callgsubr
        </CharString>
        <CharString name="brevecyrillic">
          233 -46 callsubr
          endchar
        </CharString>
        <CharString name="brevecyrillic.short">
          233 31 callgsubr
          endchar
        </CharString>
        <CharString name="brevegravecmb">
          216 10 callgsubr
          endchar
        </CharString>
        <CharString name="brevegravecmb.short">
          72 callsubr
          -310 -21 rmoveto
          17 callsubr
          -236 hlineto
          -91 -3 -70 -62 -109 hhcurveto
          -109 -70 62 91 -3 hvcurveto
          endchar
        </CharString>
        <CharString name="brevehookabovecmb">
          633 1464 rmoveto
          -97 callgsubr
          -243 376 -95 callgsubr
          endchar
        </CharString>
        <CharString name="brevehookabovecmb.short">
          418 2075 rmoveto
          82 callgsubr
          99 -112 rlineto
          70 callsubr
          -186 -348 rmoveto
          -193 155 -129 246 246 155 129 193 vhcurveto
          -205 hlineto
          91 callgsubr
          endchar
        </CharString>
        <CharString name="brevetildecmb">
          633 1465 rmoveto
          -97 callgsubr
          -124 357 -104 callsubr
          endchar
        </CharString>
        <CharString name="brevetildecmb.short">
          241 1875 rmoveto
          76 callgsubr
          -220 hlineto
          101 callsubr
          326 60 rmoveto
          137 101 99 174 hvcurveto
          -194 hlineto
          35 callsubr
          endchar
        </CharString>
        <CharString name="brokenbar">
          813 782 rmoveto
          931 -360 -931 vlineto
          360 -1266 rmoveto
          931 -360 -931 vlineto
          endchar
        </CharString>
        <CharString name="bullet">
          633 177 rmoveto
          257 209 209 257 257 -209 209 -257 -257 -209 -209 -257 -257 209 -209 257 hvcurveto
          endchar
        </CharString>
        <CharString name="c">
          1168 701 -15 callsubr
        </CharString>
        <CharString name="cacute">
          778 -92 callsubr
          714 -16 callsubr
        </CharString>
        <CharString name="caron">
          810 1296 -91 callgsubr
          endchar
        </CharString>
        <CharString name="caroncmb">
          810 1296 -91 callgsubr
          endchar
        </CharString>
        <CharString name="caroncmb.short">
          1073 -93 callsubr
          endchar
        </CharString>
        <CharString name="carondotaccentcmb">
          633 1686 rmoveto
          -105 callsubr
          177 -426 -91 callgsubr
          endchar
        </CharString>
        <CharString name="carondotaccentcmb.short">
          633 1934 9 callsubr
        </CharString>
        <CharString name="ccaron">
          822 1296 -91 callgsubr
          700 -16 callsubr
        </CharString>
        <CharString name="ccedilla">
          -39 callgsubr
        </CharString>
        <CharString name="ccedillaacute">
          1070 12 callgsubr
          -300 -707 -30 callgsubr
          -310 145 -181 275 -37 vhcurveto
          -38 -83 rlineto
          -137 60 vlineto
          -98 callsubr
          32 70 264 24 141 142 20 260 rlinecurve
          -345 hlineto
          -114 -17 -46 -44 -104 hhcurveto
          -115 -63 100 183 hvcurveto
          endchar
        </CharString>
        <CharString name="ccircumflex">
          1168 701 -83 callsubr
          -355 931 rmoveto
          -17 callgsubr
        </CharString>
        <CharString name="cdotaccent">
          1168 701 -83 callsubr
          -177 571 rmoveto
          -32 callgsubr
        </CharString>
        <CharString name="cedi">
          571 280 rmoveto
          -121 44 -72 159 240 vvcurveto
          238 72 159 121 43 vhcurveto
          340 -639 rmoveto
          -14 -122 -61 -91 -95 -31 rrcurveto
          882 vlineto
          94 -32 62 -93 12 -124 rrcurveto
          352 hlineto
          -7 297 -210 231 -303 36 rrcurveto
          107 -170 -106 vlineto
          -352 -36 -213 -278 -442 vvcurveto
          -441 213 -279 352 -37 vhcurveto
          -112 170 113 vlineto
          307 34 206 224 8 300 rrcurveto
          endchar
        </CharString>
        <CharString name="cedilla">
          463 9 callgsubr
        </CharString>
        <CharString name="cedillacmb">
          492 9 callgsubr
        </CharString>
        <CharString name="cent">
          1145 817 rmoveto
          4 226 -115 168 -244 43 rrcurveto
          199 -292 -209 vlineto
          -191 -50 -171 -147 -288 vvcurveto
          -143 vlineto
          -322 153 -144 209 -41 vhcurveto
          -200 292 202 vlineto
          210 41 145 133 245 vvcurveto
          -335 hlineto
          -58 3 -15 -74 -139 hhcurveto
          -110 -52 83 139 hvcurveto
          141 vlineto
          125 59 70 102 125 32 -71 -68 -7 vhcurveto
          endchar
        </CharString>
        <CharString name="checyrillic">
          1140 1113 rmoveto
          -354 -431 hlineto
          -47 callgsubr
          354 hlineto
          endchar
        </CharString>
        <CharString name="chigreek">
          35 -368 rmoveto
          355 hlineto
          225 433 rlineto
          19 hlineto
          134 -268 rlineto
          -125 62 77 -50 149 hhcurveto
          58 74 8 12 35 hvcurveto
          248 vlineto
          -5 -21 -22 -4 -18 hhcurveto
          -66 -24 27 91 -50 hvcurveto
          -200 371 432 743 rlineto
          -355 hlineto
          -229 -441 rlineto
          -19 hlineto
          -129 256 rlineto
          142 -72 -72 60 -170 hhcurveto
          -49 -64 -8 -12 -38 hvcurveto
          -248 vlineto
          6 22 22 3 16 hhcurveto
          66 26 -36 -92 50 hvcurveto
          204 -376 rlineto
          endchar
        </CharString>
        <CharString name="circumflex">
          456 1632 rmoveto
          -17 callgsubr
        </CharString>
        <CharString name="circumflexacutecmb">
          866 1632 rmoveto
          262 hlineto
          239 351 rlineto
          -309 hlineto
          -602 -351 rmoveto
          -17 callgsubr
        </CharString>
        <CharString name="circumflexacutecmb.short">
          891 1897 rmoveto
          271 hlineto
          194 315 rlineto
          -303 hlineto
          -250 -356 -70 callsubr
          endchar
        </CharString>
        <CharString name="circumflexbelowcmb">
          456 -156 rmoveto
          -17 callgsubr
        </CharString>
        <CharString name="circumflexcmb">
          456 1632 rmoveto
          -17 callgsubr
        </CharString>
        <CharString name="circumflexcmb.short">
          798 1946 -82 callgsubr
          endchar
        </CharString>
        <CharString name="circumflexgravecmb">
          1207 1632 -45 callsubr
        </CharString>
        <CharString name="circumflexgravecmb.short">
          1209 1897 31 callsubr
          -135 -41 -70 callsubr
          endchar
        </CharString>
        <CharString name="circumflexhookabovecmb">
          456 1632 rmoveto
          -103 callgsubr
          -17 199 -95 callgsubr
          endchar
        </CharString>
        <CharString name="circumflexhookabovecmb.short">
          795 2048 -46 callgsubr
        </CharString>
        <CharString name="circumflextildecmb">
          505 1831 -65 callsubr
        </CharString>
        <CharString name="circumflextildecmb.short">
          803 1856 -49 callsubr
        </CharString>
        <CharString name="colon">
          633 -27 rmoveto
          -23 callgsubr
          751 vmoveto
          -23 callgsubr
          endchar
        </CharString>
        <CharString name="coloncurrency">
          849 1170 rmoveto
          1 13 13 1 15 hhcurveto
          28 33 -2 -4 32 hvcurveto
          -209 -882 -47 11 -41 17 -37 22 rlinecurve
          -140 119 rmoveto
          -42 71 -23 91 108 vvcurveto
          202 80 145 144 62 vhcurveto
          169 -1279 rmoveto
          29 121 rlineto
          -2 5 6 -1 6 hhcurveto
          101 111 13 11 63 hvcurveto
          300 vlineto
          -11 -40 -81 -11 -87 hhcurveto
          -2 -3 0 1 -2 hvcurveto
          317 1310 rlineto
          -171 hlineto
          -31 -127 -45 7 -48 5 -43 2 rlinecurve
          4 hlineto
          27 113 rlineto
          -172 hlineto
          -28 -119 rlineto
          -429 -43 -244 -270 -430 vvcurveto
          -293 119 -214 217 -122 vhcurveto
          -57 -240 rlineto
          171 hlineto
          41 174 40 -16 43 -13 43 -9 rlinecurve
          -32 -136 rlineto
          endchar
        </CharString>
        <CharString name="comma">
          654 -335 rmoveto
          196 777 rlineto
          -388 hlineto
          -136 -777 rlineto
          endchar
        </CharString>
        <CharString name="commaaccent">
          690 -494 -55 callsubr
        </CharString>
        <CharString name="commabelowcmb">
          682 -504 -55 callsubr
        </CharString>
        <CharString name="copyright">
          896 794 rmoveto
          137 -11 -90 79 -149 hhcurveto
          -182 -93 -100 -188 -188 93 -100 182 148 91 79 134 11 hvcurveto
          -166 hlineto
          -52 -8 -32 -26 -52 hhcurveto
          -68 -35 52 101 101 35 52 68 52 33 -29 -52 7 hvcurveto
          -97 -621 rmoveto
          303 239 239 310 310 -239 239 -303 -303 -239 -239 -310 -310 239 -239 303 hvcurveto
          98 vmoveto
          -245 -191 199 252 252 191 199 245 245 191 -199 -252 -252 -191 -199 -245 hvcurveto
          endchar
        </CharString>
        <CharString name="cruzeiro">
          1135 295 rmoveto
          -15 -5 -22 -6 -26 -3 -38 -5 -45 -2 -47 -2 rrcurveto
          186 vlineto
          137 64 77 118 36 45 -8 -9 21 vhcurveto
          253 vlineto
          10 -21 -28 5 -34 hhcurveto
          -101 -71 -77 -101 -21 hvcurveto
          -15 163 -271 -606 hlineto
          -157 58 -86 147 216 vvcurveto
          280 164 169 282 82 122 -15 -12 55 vhcurveto
          292 vlineto
          21 -56 -131 14 -82 hhcurveto
          -509 -291 -279 -471 -476 290 -275 513 101 111 13 11 63 hvcurveto
          endchar
        </CharString>
        <CharString name="currency">
          1192 1001 rmoveto
          -209 219 -127 -143 rlineto
          38 -67 -76 19 -81 hhcurveto
          -77 -75 -20 -38 -71 hvcurveto
          -125 144 -210 -219 124 -132 rlineto
          -39 -67 -19 -74 -85 vvcurveto
          -87 18 -72 40 -68 vhcurveto
          -124 -131 210 -219 127 143 rlineto
          -37 68 75 -19 78 hhcurveto
          80 76 19 38 68 hvcurveto
          127 -144 209 219 -124 132 rlineto
          40 68 19 72 86 vvcurveto
          87 -19 74 -39 64 vhcurveto
          -436 -430 rmoveto
          -113 -87 92 113 113 87 92 113 113 87 -92 -113 -113 -87 -92 -113 hvcurveto
          endchar
        </CharString>
        <CharString name="d">
          440 662 -88 callgsubr
        </CharString>
        <CharString name="dagger">
          768 717 rmoveto
          345 -4 rlineto
          270 vlineto
          -345 -3 9 374 rlineto
          -288 hlineto
          9 -374 -345 3 rlineto
          -270 vlineto
          345 4 -9 -887 rlineto
          288 hlineto
          endchar
        </CharString>
        <CharString name="daggerdbl">
          1113 201 rmoveto
          270 vlineto
          -342 -4 rlineto
          250 vlineto
          342 -4 rlineto
          270 vlineto
          -340 -3 4 374 rlineto
          -288 hlineto
          4 -374 -340 3 rlineto
          -270 vlineto
          342 4 rlineto
          -250 vlineto
          -342 4 rlineto
          -270 vlineto
          340 3 -4 -374 rlineto
          288 hlineto
          -4 374 rlineto
          endchar
        </CharString>
        <CharString name="darkshade">
          1054 1354 rmoveto
          -106 -105 106 vlineto
          -105 100 callsubr
          -105 100 callsubr
          -106 hmoveto
          -106 -104 106 vlineto
          -106 hmoveto
          -106 -105 106 vlineto
          843 -317 rmoveto
          -105 106 105 hlineto
          -632 108 callgsubr
          843 108 callgsubr
          -633 108 callgsubr
          211 -106 rmoveto
          -105 106 105 hlineto
          -105 -212 rmoveto
          -104 -106 104 vlineto
          527 hmoveto
          -104 -105 104 vlineto
          -105 hmoveto
          -104 -106 104 vlineto
          -317 hmoveto
          -104 -104 104 vlineto
          -106 hmoveto
          -104 -105 104 vlineto
          843 -210 rmoveto
          -106 -105 106 vlineto
          -317 100 callsubr
          739 100 callsubr
          -316 hmoveto
          -106 -105 106 vlineto
          -316 108 callgsubr
          737 -211 rmoveto
          -106 -105 106 vlineto
          -632 -106 rmoveto
          106 104 -106 vlineto
          -210 106 rmoveto
          -106 -105 106 vlineto
          738 100 callsubr
          -105 100 callsubr
          317 -316 rmoveto
          105 105 -105 vlineto
          -738 hmoveto
          105 106 -105 vlineto
          316 hmoveto
          105 105 -105 vlineto
          316 hmoveto
          105 106 -105 vlineto
          -739 hmoveto
          105 106 -105 vlineto
          317 -106 rmoveto
          -105 -106 107 callgsubr
          -105 105 vlineto
          315 hmoveto
          -105 -104 105 vlineto
          737 hmoveto
          -105 -105 105 vlineto
          -316 hmoveto
          -105 -106 105 vlineto
          106 -316 rmoveto
          105 105 -105 vlineto
          316 hmoveto
          105 106 -105 vlineto
          -949 hmoveto
          105 106 -105 vlineto
          104 hmoveto
          105 106 -105 vlineto
          317 hmoveto
          105 105 -105 vlineto
          -738 -211 rmoveto
          106 106 104 -106 106 106 106 -106 105 106 106 -106 105 106 105 -106 106 106 106 316 -106 105 106 316 -106 106 106 317 -106 104 106 317 -106 106 106 210 -106 -106 -106 106 -105 -106 -105 106 -106 -106 -105 hlineto
          106 -106 -106 -106 106 -104 -106 -106 106 -105 -106 -106 -315 106 -106 -106 -316 106 -106 -106 -316 106 -105 -106 -317 106 -105 -106 -211 106 106 105 vlineto
          endchar
        </CharString>
        <CharString name="dbldnhorzbxd">
          59 callgsubr
          1746 -720 40 callgsubr
          -480 -1040 rmoveto
          38 callgsubr
        </CharString>
        <CharString name="dbldnleftbxd">
          993 -840 rmoveto
          1760 -1233 -240 993 -1520 vlineto
          -240 hmoveto
          38 callgsubr
        </CharString>
        <CharString name="dbldnrightbxd">
          1506 680 rmoveto
          240 -1233 -1760 240 1520 vlineto
          993 -480 40 callgsubr
          endchar
        </CharString>
        <CharString name="dblgrave">
          918 -56 callsubr
          endchar
        </CharString>
        <CharString name="dblgravecmb">
          918 -56 callsubr
          endchar
        </CharString>
        <CharString name="dblgravecmb.short">
          894 -48 callgsubr
          endchar
        </CharString>
        <CharString name="dblhorzbxd">
          59 callgsubr
          -720 vmoveto
          28 callgsubr
          endchar
        </CharString>
        <CharString name="dbluphorzbxd">
          753 680 rmoveto
          753 240 -513 1040 27 callgsubr
          -480 vmoveto
          28 callgsubr
          endchar
        </CharString>
        <CharString name="dblupleftbxd">
          513 680 rmoveto
          20 callgsubr
          -1040 -513 -240 vlineto
          1233 -480 rmoveto
          1760 -240 -1520 -993 -240 vlineto
          endchar
        </CharString>
        <CharString name="dbluprightbxd">
          753 680 103 callsubr
          -480 -1760 rmoveto
          1233 240 -993 1520 -240 hlineto
          endchar
        </CharString>
        <CharString name="dblvertbxd">
          96 callgsubr
          -480 -2800 40 callsubr
          endchar
        </CharString>
        <CharString name="dblverthorzbxd">
          753 680 rmoveto
          753 240 -513 1040 27 callgsubr
          1746 -480 40 callgsubr
          -480 -1040 rmoveto
          38 callgsubr
        </CharString>
        <CharString name="dblvertleftbxd">
          753 -840 rmoveto
          240 2800 27 callgsubr
          753 -1520 rmoveto
          38 callgsubr
        </CharString>
        <CharString name="dblvertrightbxd">
          273 34 callgsubr
          480 -1280 103 callsubr
          753 -1760 40 callgsubr
          endchar
        </CharString>
        <CharString name="dcaron">
          336 652 rmoveto
          146 39 58 99 99 39 -58 -146 vhcurveto
          -178 vlineto
          -146 -39 -58 -99 -99 -39 58 146 vhcurveto
          319 -270 rmoveto
          -204 289 1530 -291 -616 -22 vlineto
          142 -29 -101 76 -140 hhcurveto
          -236 -92 -145 -338 hvcurveto
          -183 vlineto
          -338 92 -145 236 144 102 77 144 26 vhcurveto
          378 1326 rmoveto
          -510 223 vlineto
          32 510 rlineto
          endchar
        </CharString>
        <CharString name="dcircumflexbelow">
          456 -156 rmoveto
          -103 callgsubr
          -370 818 -88 callgsubr
        </CharString>
        <CharString name="dcommaaccent">
          682 -504 rmoveto
          192 350 rlineto
          -350 hlineto
          -148 -350 rlineto
          64 1166 -88 callgsubr
        </CharString>
        <CharString name="dcroat">
          788 464 rmoveto
          -36 callgsubr
          113 65 -71 -123 vhcurveto
          478 748 rmoveto
          -116 120 -371 -120 -107 -164 107 -332 -22 hlineto
          140 -29 -106 78 -160 hhcurveto
          -254 -138 -170 -313 hvcurveto
          -183 vlineto
          -313 138 -170 254 166 106 79 142 25 vhcurveto
          22 -204 369 1246 116 hlineto
          endchar
        </CharString>
        <CharString name="ddotaccent">
          456 27 callsubr
          -16 -610 -88 callgsubr
        </CharString>
        <CharString name="ddotbelow">
          25 callgsubr
          -193 1153 -88 callgsubr
        </CharString>
        <CharString name="decyrillic">
          -10 callsubr
        </CharString>
        <CharString name="degree">
          633 776 rmoveto
          217 162 163 217 217 -162 163 -217 -217 -162 -163 -217 -217 162 -163 217 hvcurveto
          206 vmoveto
          -97 -68 72 102 102 68 72 97 97 68 -72 -102 -102 -68 -72 -97 hvcurveto
          endchar
        </CharString>
        <CharString name="deltagreek">
          1159 537 rmoveto
          239 -107 154 -316 167 vhcurveto
          -92 48 -36 32 45 vvcurveto
          59 52 21 70 102 115 -31 -53 119 vhcurveto
          256 vlineto
          52 -114 -123 30 -168 hhcurveto
          -272 -129 -128 -167 -118 61 -86 123 -62 hvcurveto
          -22 vlineto
          -216 -24 -136 -192 -230 vvcurveto
          -41 vlineto
          -312 198 -200 333 333 203 200 312 vhcurveto
          -531 306 rmoveto
          120 70 -94 -148 hvcurveto
          -67 vlineto
          -148 -70 -94 -120 -120 -70 94 148 vhcurveto
          67 vlineto
          148 70 94 120 vhcurveto
          endchar
        </CharString>
        <CharString name="dieresis">
          380 1287 rmoveto
          -107 callsubr
          506 hmoveto
          -107 callsubr
          endchar
        </CharString>
        <CharString name="dieresisacutecmb">
          482 1641 rmoveto
          277 hlineto
          271 351 rlineto
          -324 hlineto
          -326 -745 rmoveto
          -107 callsubr
          506 hmoveto
          -107 callsubr
          endchar
        </CharString>
        <CharString name="dieresisacutecmb.short">
          496 1962 rmoveto
          274 hlineto
          185 250 rlineto
          -327 hlineto
          -248 -652 rmoveto
          -107 callsubr
          506 hmoveto
          -107 callsubr
          endchar
        </CharString>
        <CharString name="dieresisbelowcmb">
          380 -477 rmoveto
          -107 callsubr
          506 hmoveto
          -107 callsubr
          endchar
        </CharString>
        <CharString name="dieresiscaroncmb">
          788 1641 rmoveto
          267 356 rlineto
          -279 hlineto
          -133 -208 rlineto
          -20 hlineto
          -133 208 rlineto
          -279 hlineto
          267 -356 rlineto
          -98 -394 rmoveto
          -107 callsubr
          506 hmoveto
          -107 callsubr
          endchar
        </CharString>
        <CharString name="dieresiscaroncmb.short">
          788 1929 rmoveto
          269 326 rlineto
          -285 hlineto
          -128 -178 rlineto
          -22 hlineto
          -128 178 rlineto
          -285 hlineto
          269 -326 rlineto
          -98 -369 rmoveto
          -107 callsubr
          506 hmoveto
          -107 callsubr
          endchar
        </CharString>
        <CharString name="dieresiscmb">
          380 1279 rmoveto
          -107 callsubr
          506 hmoveto
          -107 callsubr
          endchar
        </CharString>
        <CharString name="dieresiscmb.short">
          380 1600 rmoveto
          -107 callsubr
          506 hmoveto
          -107 callsubr
          endchar
        </CharString>
        <CharString name="dieresisgravecmb">
          380 1247 rmoveto
          -107 callsubr
          506 hmoveto
          -107 callsubr
          -326 745 rmoveto
          -324 hlineto
          271 -351 rlineto
          277 hlineto
          endchar
        </CharString>
        <CharString name="dieresisgravecmb.short">
          382 1560 rmoveto
          -107 callsubr
          506 hmoveto
          -107 callsubr
          -248 652 rmoveto
          -327 hlineto
          185 -250 rlineto
          274 hlineto
          endchar
        </CharString>
        <CharString name="dieresismacroncmb">
          3 callsubr
          endchar
        </CharString>
        <CharString name="dieresismacroncmb.short">
          888 65 callsubr
          -644 91 29 callgsubr
          138 -287 rmoveto
          -76 callsubr
          endchar
        </CharString>
        <CharString name="dieresistonosgreek">
          463 1268 -51 callsubr
        </CharString>
        <CharString name="divide">
          1184 503 rmoveto
          280 -1102 -280 vlineto
          550 369 rmoveto
          120 78 77 112 113 -78 74 -120 -118 -77 -74 -113 -112 77 -77 118 hvcurveto
          -835 vmoveto
          120 78 76 112 113 -78 75 -120 -118 -77 -75 -113 -112 77 -76 118 hvcurveto
          endchar
        </CharString>
        <CharString name="djecyrillic">
          445 928 rmoveto
          318 263 164 -263 120 -346 -120 -99 -164 99 -1246 353 23 callsubr
          -649 vlineto
          -76 -37 -32 -92 -13 -20 1 1 -9 vhcurveto
          -253 vlineto
          -2 18 53 -3 32 hhcurveto
          271 150 124 226 hvcurveto
          743 vlineto
          270 -134 149 -242 -158 -121 -76 -130 -49 vhcurveto
          endchar
        </CharString>
        <CharString name="dlinebelow">
          1015 -427 -92 callgsubr
          189 1089 -88 callgsubr
        </CharString>
        <CharString name="dndblhorzsngbxd">
          58 callsubr
          -1746 48 callsubr
        </CharString>
        <CharString name="dndblleftsngbxd">
          69 callsubr
          240 1520 -1233 48 callsubr
        </CharString>
        <CharString name="dndblrightsngbxd">
          58 callsubr
          -1233 -1520 240 1280 240 hlineto
          endchar
        </CharString>
        <CharString name="dneighthblock">
          60 callsubr
          256 64 callsubr
        </CharString>
        <CharString name="dnfiveeighthsblock">
          60 callsubr
          1280 64 callsubr
        </CharString>
        <CharString name="dnhalfblock">
          60 callsubr
          1024 64 callsubr
        </CharString>
        <CharString name="dnheavyhorzlightbxd">
          -13 callgsubr
          -1746 120 callgsubr
          -1280 43 callgsubr
        </CharString>
        <CharString name="dnheavyleftlightbxd">
          79 callsubr
          1520 -1089 83 callgsubr
        </CharString>
        <CharString name="dnheavyleftuplightbxd">
          79 callsubr
          1520 -96 54 callsubr
          -753 83 callgsubr
        </CharString>
        <CharString name="dnheavyrightlightbxd">
          -13 callgsubr
          -1089 -1520 43 callgsubr
        </CharString>
        <CharString name="dnheavyrightuplightbxd">
          -22 callgsubr
          -1280 -96 -1520 43 callgsubr
        </CharString>
        <CharString name="dnheavyuphorzlightbxd">
          -22 callgsubr
          -1280 -753 120 callgsubr
          -1280 43 callgsubr
        </CharString>
        <CharString name="dnleftquadrant">
          -464 vmoveto
          60 callgsubr
        </CharString>
        <CharString name="dnlighthorzheavybxd">
          -43 callsubr
          -1746 30 callgsubr
        </CharString>
        <CharString name="dnlightleftheavybxd">
          69 callsubr
          1616 -993 83 callsubr
        </CharString>
        <CharString name="dnlightleftupheavybxd">
          849 344 rmoveto
          1616 64 callgsubr
        </CharString>
        <CharString name="dnlightrightheavybxd">
          -43 callsubr
          -993 -1616 240 24 callsubr
        </CharString>
        <CharString name="dnlightrightupheavybxd">
          -43 callsubr
          -657 1184 -432 -1616 96 -1184 240 24 callsubr
        </CharString>
        <CharString name="dnlightuphorzheavybxd">
          -43 callsubr
          -657 1184 64 callgsubr
        </CharString>
        <CharString name="dnquarterblock">
          60 callsubr
          512 64 callsubr
        </CharString>
        <CharString name="dnrightquadrant">
          633 -464 rmoveto
          60 callgsubr
        </CharString>
        <CharString name="dnseveneighthsblock">
          60 callsubr
          1792 64 callsubr
        </CharString>
        <CharString name="dnsnghorzdblbxd">
          59 callgsubr
          1746 -720 rmoveto
          111 callsubr
          98 callsubr
        </CharString>
        <CharString name="dnsngleftdblbxd">
          69 callsubr
          1760 -993 -240 753 -240 67 callsubr
          -1040 vlineto
          endchar
        </CharString>
        <CharString name="dnsngrightdblbxd">
          52 callsubr
          -993 -1760 118 callgsubr
        </CharString>
        <CharString name="dnthreeeighthsblock">
          60 callsubr
          768 64 callsubr
        </CharString>
        <CharString name="dnthreequartersblock">
          60 callsubr
          1536 64 callsubr
        </CharString>
        <CharString name="dollar">
          712 566 rmoveto
          142 -37 59 -52 -83 vvcurveto
          -93 -80 -69 -121 -18 vhcurveto
          -141 678 rmoveto
          -129 35 -54 49 79 vvcurveto
          92 70 65 113 18 vhcurveto
          141 -369 rmoveto
          367 vlineto
          107 -21 73 -68 12 -94 rrcurveto
          284 hlineto
          -8 237 -191 169 -277 26 rrcurveto
          107 -141 -106 vlineto
          -296 -23 -190 -172 -254 vvcurveto
          -221 130 -136 262 -55 vhcurveto
          94 -20 rlineto
          -383 vlineto
          -129 19 -86 69 -12 99 rrcurveto
          -292 hlineto
          10 -253 199 -165 310 -18 rrcurveto
          -106 141 107 vlineto
          313 25 189 173 268 vvcurveto
          225 -125 124 -289 61 vhcurveto
          endchar
        </CharString>
        <CharString name="dotaccent">
          633 27 callsubr
          endchar
        </CharString>
        <CharString name="dotaccentcmb">
          633 27 callsubr
          endchar
        </CharString>
        <CharString name="dotaccentcmb.short">
          633 1571 rmoveto
          -32 callgsubr
        </CharString>
        <CharString name="dotbelowcmb">
          25 callgsubr
          endchar
        </CharString>
        <CharString name="dotlessi">
          1130 hmoveto
          -77 callsubr
          endchar
        </CharString>
        <CharString name="dotlessj">
          -26 callgsubr
          endchar
        </CharString>
        <CharString name="dotmacroncmb">
          1015 1719 -92 callgsubr
          382 -480 rmoveto
          -32 callgsubr
        </CharString>
        <CharString name="dotmacroncmb.short">
          36 callsubr
          endchar
        </CharString>
        <CharString name="dzecyrillic">
          148 774 rmoveto
          -11 callgsubr
          vhcurveto
          169 -35 rlineto
          -101 callgsubr
          hvcurveto
          endchar
        </CharString>
        <CharString name="dzhecyrillic">
          1151 1113 rmoveto
          -354 -851 -328 851 -354 -1113 358 -285 320 285 358 hlineto
          endchar
        </CharString>
        <CharString name="e">
          -105 callgsubr
          endchar
        </CharString>
        <CharString name="eacute">
          774 -92 callsubr
          380 -968 -96 callsubr
        </CharString>
        <CharString name="ebreve">
          -105 callgsubr
          -518 1138 rmoveto
          -97 callgsubr
          endchar
        </CharString>
        <CharString name="ecaron">
          818 1296 -91 callgsubr
          366 -968 -96 callsubr
        </CharString>
        <CharString name="ecedilla">
          467 681 rmoveto
          129 67 78 113 109 65 116 callsubr
          -76 -44 -89 hhcurveto
          -111 -75 74 110 hvcurveto
          69 691 180 vlineto
          286 -204 195 -299 -319 -213 -194 -291 vhcurveto
          -184 vlineto
          -278 150 -173 267 -37 vhcurveto
          -39 -84 rlineto
          -137 60 vlineto
          -98 callsubr
          32 71 235 27 173 139 13 183 rlinecurve
          endchar
        </CharString>
        <CharString name="ecedillabreve">
          815 1629 rmoveto
          -100 -3 -66 -63 -104 hhcurveto
          -3 callsubr
          -244 hlineto
          -222 166 -147 251 251 166 147 222 vhcurveto
          -592 -948 rmoveto
          129 67 78 113 109 65 116 callsubr
          -76 -44 -89 hhcurveto
          -111 -75 74 110 hvcurveto
          69 691 180 vlineto
          286 -204 195 -299 -319 -213 -194 -291 vhcurveto
          -184 vlineto
          -278 150 -173 267 -37 vhcurveto
          -39 -84 rlineto
          -137 60 vlineto
          -98 callsubr
          32 71 235 27 173 139 13 183 rlinecurve
          endchar
        </CharString>
        <CharString name="ecircumflex">
          -105 callgsubr
          -696 1304 rmoveto
          -17 callgsubr
        </CharString>
        <CharString name="ecircumflexacute">
          -105 callgsubr
          -285 1304 rmoveto
          262 hlineto
          239 351 rlineto
          -309 hlineto
          -602 -351 rmoveto
          -17 callgsubr
        </CharString>
        <CharString name="ecircumflexbelow">
          -105 callgsubr
          -695 -484 rmoveto
          -17 callgsubr
        </CharString>
        <CharString name="ecircumflexdotbelow">
          -105 callgsubr
          -695 1304 rmoveto
          -103 callgsubr
          -177 -2123 rmoveto
          -32 callgsubr
        </CharString>
        <CharString name="ecircumflexgrave">
          -105 callgsubr
          56 1304 -45 callsubr
        </CharString>
        <CharString name="ecircumflexhookabove">
          -105 callgsubr
          -695 1304 rmoveto
          -103 callgsubr
          -17 199 -95 callgsubr
          endchar
        </CharString>
        <CharString name="ecircumflextilde">
          -105 callgsubr
          -646 1503 -65 callsubr
        </CharString>
        <CharString name="ecyrillic">
          -19 callsubr
          endchar
        </CharString>
        <CharString name="edblgrave">
          834 -56 callsubr
          274 -968 -96 callsubr
        </CharString>
        <CharString name="edieresis">
          -105 callgsubr
          -771 959 rmoveto
          -107 callsubr
          506 hmoveto
          -107 callsubr
          endchar
        </CharString>
        <CharString name="edotaccent">
          -105 callgsubr
          -518 944 rmoveto
          -32 callgsubr
        </CharString>
        <CharString name="edotbelow">
          -105 callgsubr
          -518 -819 rmoveto
          -32 callgsubr
        </CharString>
        <CharString name="efcyrillic">
          473 -368 rmoveto
          320 351 hlineto
          316 21 158 192 361 vvcurveto
          354 -164 198 -310 21 vhcurveto
          332 -320 -332 vlineto
          -310 -21 -164 -198 -354 vvcurveto
          -361 158 -192 316 -21 vhcurveto
          -168 574 rmoveto
          203 66 126 111 5 vhcurveto
          -669 vlineto
          -112 5 -65 123 207 vvcurveto
          479 334 rmoveto
          111 -5 66 -126 -203 vvcurveto
          -207 -65 -123 -112 -5 vhcurveto
          endchar
        </CharString>
        <CharString name="egrave">
          -105 callgsubr
          -326 968 -54 callsubr
          endchar
        </CharString>
        <CharString name="ehookabove">
          -105 callgsubr
          -715 1188 -95 callgsubr
          endchar
        </CharString>
        <CharString name="eight">
          632 870 rmoveto
          -116 -79 72 104 104 79 72 116 116 79 -72 -104 -104 -79 -72 -116 hvcurveto
          -641 vmoveto
          -138 -93 79 117 117 93 79 138 138 93 -79 -117 -117 -93 -79 -138 hvcurveto
          -258 vmoveto
          370 245 167 252 176 -127 142 -201 46 hvcurveto
          19 vlineto
          164 35 106 121 150 vvcurveto
          230 -231 163 -326 -326 -231 -163 -230 -150 106 -121 164 -35 vhcurveto
          -19 vlineto
          -201 -46 -127 -142 -176 vvcurveto
          -252 245 -167 370 vhcurveto
          endchar
        </CharString>
        <CharString name="einvertedbreve">
          1059 -60 callgsubr
          15 -932 -96 callsubr
        </CharString>
        <CharString name="elcyrillic">
          792 841 rmoveto
          -841 344 1113 -883 vlineto
          -58 callgsubr
          endchar
        </CharString>
        <CharString name="ellipsis">
          216 -29 rmoveto
          26 callsubr
          417 hmoveto
          26 callsubr
          417 hmoveto
          26 callsubr
          endchar
        </CharString>
        <CharString name="emacron">
          -105 callgsubr
          -137 1019 -92 callgsubr
          endchar
        </CharString>
        <CharString name="emacronacute">
          1024 4 callsubr
          335 -1341 -96 callsubr
        </CharString>
        <CharString name="emacrongrave">
          -105 callgsubr
          -371 1341 11 callgsubr
        </CharString>
        <CharString name="emcyrillic">
          329 737 rmoveto
          65 callgsubr
          267 1113 -365 hlineto
          73 callgsubr
          endchar
        </CharString>
        <CharString name="emdash">
          54 callgsubr
        </CharString>
        <CharString name="encyrillic">
          53 callgsubr
        </CharString>
        <CharString name="endash">
          54 callgsubr
        </CharString>
        <CharString name="eogonek">
          867 -479 114 callsubr
          -5 -10 -27 -3 -34 hhcurveto
          -78 -43 36 67 60 44 64 109 97 hvcurveto
          107 95 63 103 6 91 rrcurveto
          -330 hlineto
          -59 -12 -76 -44 -89 hhcurveto
          -111 -75 74 110 hvcurveto
          69 691 180 vlineto
          286 -204 195 -299 -319 -213 -194 -291 vhcurveto
          -184 vlineto
          -314 181 -182 311 36 34 2 3 22 vhcurveto
          -19 vlineto
          -79 -42 -53 -84 -82 vvcurveto
          -136 120 -95 172 vhcurveto
          -220 1367 rmoveto
          109 65 -78 -129 hvcurveto
          -354 hlineto
          129 67 78 113 vhcurveto
          endchar
        </CharString>
        <CharString name="epsilongreek">
          -28 callgsubr
          endchar
        </CharString>
        <CharString name="epsilontonosgreek">
          -28 callgsubr
          -109 1294 -6 callgsubr
          endchar
        </CharString>
        <CharString name="equal">
          1163 201 rmoveto
          339 -1060 -339 vlineto
          1060 543 rmoveto
          339 -1060 -339 vlineto
          endchar
        </CharString>
        <CharString name="ercyrillic">
          -57 callgsubr
          endchar
        </CharString>
        <CharString name="ereversedcyrillic">
          414 716 -86 callgsubr
        </CharString>
        <CharString name="escyrillic">
          1168 701 -15 callsubr
        </CharString>
        <CharString name="etagreek">
          546 hmoveto
          -15 callgsubr
        </CharString>
        <CharString name="etatonosgreek">
          436 55 callgsubr
          30 -1662 rmoveto
          -15 callgsubr
        </CharString>
        <CharString name="eth">
          794 492 rmoveto
          -158 -62 -95 -104 -104 -62 95 158 vhcurveto
          69 vlineto
          158 62 95 104 104 62 -95 -158 vhcurveto
          301 841 rmoveto
          194 vlineto
          -334 -123 -36 30 -38 26 -39 24 rlinecurve
          -470 hlineto
          112 -61 96 -62 81 -65 -211 -77 rcurveline
          -194 vlineto
          360 132 78 -87 55 -92 35 -100 rlinecurve
          -19 hlineto
          79 -64 -74 32 -119 hhcurveto
          -265 -156 -196 -334 hvcurveto
          -12 vlineto
          -339 199 -198 339 343 198 204 353 vhcurveto
          110 vlineto
          242 -100 251 -162 193 vhcurveto
          endchar
        </CharString>
        <CharString name="etilde">
          -105 callgsubr
          -642 1069 -104 callsubr
          endchar
        </CharString>
        <CharString name="etildebelow">
          -105 callgsubr
          -632 -665 -104 callsubr
          endchar
        </CharString>
        <CharString name="exclam">
          430 46 callsubr
          31 -994 rlineto
          342 hlineto
          34 994 rlineto
          -204 -1481 rmoveto
          50 callgsubr
          50 callsubr
          hvcurveto
          endchar
        </CharString>
        <CharString name="exclamdown">
          633 1131 rmoveto
          50 callsubr
          50 callgsubr
          hvcurveto
          204 -1481 rmoveto
          -34 994 rlineto
          -342 hlineto
          -31 -994 rlineto
          endchar
        </CharString>
        <CharString name="f">
          21 callgsubr
          endchar
        </CharString>
        <CharString name="fdotaccent">
          21 callgsubr
          -239 437 rmoveto
          -32 callgsubr
        </CharString>
        <CharString name="fi">
          629 hmoveto
          835 204 -835 373 1098 -577 91 vlineto
          67 34 28 58 vhcurveto
          39 238 -38 hlineto
          -353 -113 -89 -278 hvcurveto
          -57 -224 -263 224 -835 vlineto
          780 1200 rmoveto
          -70 callgsubr
          endchar
        </CharString>
        <CharString name="figuredash">
          54 callgsubr
        </CharString>
        <CharString name="five">
          628 -29 rmoveto
          341 226 210 317 279 -184 193 -266 -142 -114 -54 -93 -54 hvcurveto
          -20 hlineto
          25 334 rlineto
          662 286 -953 hlineto
          -64 -845 rlineto
          356 hlineto
          78 47 59 35 84 hhcurveto
          131 89 -89 -133 -133 -89 -89 -131 -107 -80 62 96 -17 hvcurveto
          -355 hlineto
          -269 3 226 -185 327 hhcurveto
          endchar
        </CharString>
        <CharString name="fl">
          554 835 rmoveto
          207 263 -216 87 hlineto
          65 33 34 65 vhcurveto
          210 -1284 353 1522 -575 hlineto
          -322 -108 -91 -273 hvcurveto
          -60 -201 -263 201 -835 353 vlineto
          endchar
        </CharString>
        <CharString name="florin">
          249 -24 rmoveto
          317 170 142 310 49 hvcurveto
          29 174 rlineto
          368 268 -325 hlineto
          18 111 rlineto
          116 19 64 52 122 hhcurveto
          42 71 -6 -8 33 hvcurveto
          307 vlineto
          7 -46 -67 5 -75 hhcurveto
          -328 -179 -139 -284 -47 hvcurveto
          -25 -161 rlineto
          -336 -268 293 hlineto
          -27 -157 rlineto
          -104 -18 -70 -62 -105 hhcurveto
          -51 -55 8 12 -49 hvcurveto
          -303 vlineto
          -11 45 82 -9 81 hhcurveto
          endchar
        </CharString>
        <CharString name="four">
          705 hmoveto
          346 254 170 272 -178 344 -324 -336 -260 22 hlineto
          380 887 rlineto
          -369 hlineto
          -400 -911 rlineto
          -278 635 vlineto
          endchar
        </CharString>
        <CharString name="fraction">
          1266 1443 -9 callgsubr
        </CharString>
        <CharString name="franc">
          966 370 rmoveto
          -331 196 461 280 -461 302 512 295 -878 -1073 -150 -213 150 -157 366 157 331 hlineto
          endchar
        </CharString>
        <CharString name="fullblock">
          60 callsubr
          2048 64 callsubr
        </CharString>
        <CharString name="g">
          -100 callgsubr
          endchar
        </CharString>
        <CharString name="gacute">
          746 -92 callsubr
          742 -35 callsubr
        </CharString>
        <CharString name="gammagreek">
          414 -368 rmoveto
          346 329 hlineto
          280 375 103 297 277 vvcurveto
          64 -8 81 -16 58 84 callsubr
          14 -61 9 -55 -89 vvcurveto
          -231 -43 -152 -121 -205 vhcurveto
          -19 hlineto
          -198 793 rlineto
          -381 hlineto
          379 -1191 rlineto
          endchar
        </CharString>
        <CharString name="gbreve">
          -100 callgsubr
          11 1885 rmoveto
          -97 callgsubr
          endchar
        </CharString>
        <CharString name="gcaron">
          791 1296 -91 callgsubr
          727 -35 callsubr
        </CharString>
        <CharString name="gcircumflex">
          -100 callgsubr
          -167 2051 rmoveto
          -17 callgsubr
        </CharString>
        <CharString name="gcommaaccent">
          -100 callgsubr
          15 2061 rmoveto
          -192 -350 rlineto
          350 hlineto
          148 350 rlineto
          endchar
        </CharString>
        <CharString name="gdotaccent">
          -100 callgsubr
          11 1691 rmoveto
          -32 callgsubr
        </CharString>
        <CharString name="gecyrillic">
          1176 1113 rmoveto
          -1072 -7 callsubr
          hlineto
          endchar
        </CharString>
        <CharString name="germandbls">
          417 hmoveto
          980 vlineto
          126 54 56 115 100 59 -55 -95 -84 -61 -59 -86 vhcurveto
          -25 -299 58 hlineto
          140 74 -51 -99 -90 -57 -44 -108 -56 -39 6 15 -34 hvcurveto
          -304 vlineto
          -11 47 73 -8 63 hhcurveto
          331 170 138 275 204 -119 128 -208 24 hvcurveto
          19 vlineto
          119 38 85 120 135 vvcurveto
          266 -179 141 -331 -361 -203 -163 -294 vhcurveto
          -1015 vlineto
          endchar
        </CharString>
        <CharString name="geupturncyrillic">
          886 1398 rmoveto
          -285 -782 -7 callsubr
          707 vlineto
          endchar
        </CharString>
        <CharString name="gjecyrillic">
          1084 12 callgsubr
          384 -183 rmoveto
          -1072 -7 callsubr
          hlineto
          endchar
        </CharString>
        <CharString name="glyph1">
          endchar
        </CharString>
        <CharString name="gmacron">
          -100 callgsubr
          393 1766 -92 callgsubr
          endchar
        </CharString>
        <CharString name="grave">
          941 44 callgsubr
          endchar
        </CharString>
        <CharString name="gravecmb">
          941 44 callgsubr
          endchar
        </CharString>
        <CharString name="gravecmb.short">
          685 -42 callsubr
          endchar
        </CharString>
        <CharString name="greater">
          740 654 rmoveto
          -21 vlineto
          -599 -244 rlineto
          -383 vlineto
          987 488 rlineto
          299 vlineto
          -987 488 rlineto
          -383 vlineto
          endchar
        </CharString>
        <CharString name="greaterequal">
          1158 -15 rmoveto
          300 -1045 -300 vlineto
          -2 669 rmoveto
          -316 vlineto
          1047 299 rlineto
          279 vlineto
          -1047 299 rlineto
          -317 vlineto
          564 -112 rlineto
          -20 vlineto
          endchar
        </CharString>
        <CharString name="greekquestionmark">
          633 724 rmoveto
          -23 callgsubr
          21 -1046 rmoveto
          196 764 rlineto
          -388 hlineto
          -136 -764 rlineto
          endchar
        </CharString>
        <CharString name="guarani">
          740 572 rmoveto
          195 hlineto
          -10 -179 -66 -96 -119 -22 rrcurveto
          -161 11 rmoveto
          -127 44 -67 153 240 vvcurveto
          239 60 156 134 44 vhcurveto
          673 -344 rmoveto
          -512 353 hlineto
          94 -17 53 -67 22 -91 rrcurveto
          326 hlineto
          -50 275 -159 175 -286 21 rrcurveto
          117 -161 -121 vlineto
          -383 -39 -174 -273 -431 vvcurveto
          -424 190 -278 367 -42 vhcurveto
          -123 161 120 vlineto
          286 25 226 222 370 vvcurveto
          endchar
        </CharString>
        <CharString name="guillemotleft">
          366 644 5 callgsubr
          524 9 5 callgsubr
          endchar
        </CharString>
        <CharString name="guillemotright">
          376 635 4 callgsubr
          524 -9 4 callgsubr
          endchar
        </CharString>
        <CharString name="guilsingleright">
          638 635 4 callgsubr
          endchar
        </CharString>
        <CharString name="guilsinglleft">
          628 644 5 callgsubr
          endchar
        </CharString>
        <CharString name="h">
          99 hmoveto
          -85 callsubr
          endchar
        </CharString>
        <CharString name="hacyrillic">
          634 341 rmoveto
          179 -341 rlineto
          387 hlineto
          -338 562 -59 callgsubr
          endchar
        </CharString>
        <CharString name="hardsigncyrillic">
          605 262 rmoveto
          286 149 vlineto
          80 33 -57 -86 -86 -33 -57 -80 hvcurveto
          -149 544 rmoveto
          307 -605 -262 260 -851 564 vlineto
          251 140 157 246 246 -140 157 -251 hvcurveto
          endchar
        </CharString>
        <CharString name="hbar">
          -45 callgsubr
        </CharString>
        <CharString name="hbrevebelow">
          99 hmoveto
          -85 callsubr
          535 -1789 rmoveto
          -97 callgsubr
          endchar
        </CharString>
        <CharString name="hcaron">
          717 2022 rmoveto
          -298 hlineto
          -132 -190 rlineto
          -20 hlineto
          -132 190 56 callsubr
          275 -350 rlineto
          330 hlineto
          -343 -1672 rmoveto
          -85 callsubr
          endchar
        </CharString>
        <CharString name="hcedilla">
          261 hmoveto
          -54 -120 rlineto
          -128 60 vlineto
          89 31 -14 -41 -34 -35 -17 -72 -44 -47 6 8 -22 hvcurveto
          -144 vlineto
          -11 32 56 -7 59 hhcurveto
          184 96 75 136 107 -75 72 -116 3 hvcurveto
          49 109 rlineto
          631 vlineto
          -78 callsubr
          -19 602 -346 -1530 hlineto
          endchar
        </CharString>
        <CharString name="hcircumflex">
          99 hmoveto
          -85 callsubr
          -8 420 rmoveto
          -17 callgsubr
        </CharString>
        <CharString name="hdieresis">
          99 hmoveto
          -85 callsubr
          -75 157 rmoveto
          -107 callsubr
          506 hmoveto
          -107 callsubr
          endchar
        </CharString>
        <CharString name="hdotaccent">
          99 hmoveto
          -85 callsubr
          174 128 rmoveto
          -32 callgsubr
        </CharString>
        <CharString name="hdotbelow">
          99 hmoveto
          -85 callsubr
          535 -2021 rmoveto
          -32 callgsubr
        </CharString>
        <CharString name="heavydbldashhorzbxd">
          791 344 rmoveto
          317 432 -317 hlineto
          -633 -432 rmoveto
          317 432 -317 hlineto
          endchar
        </CharString>
        <CharString name="heavydbldashvertbxd">
          417 816 rmoveto
          432 512 -432 hlineto
          -1536 vmoveto
          432 512 -432 hlineto
          endchar
        </CharString>
        <CharString name="heavydnbxd">
          417 -840 rmoveto
          432 1520 -432 hlineto
          endchar
        </CharString>
        <CharString name="heavydnhorzbxd">
          -43 callsubr
          -1746 87 callsubr
          432 24 callsubr
        </CharString>
        <CharString name="heavydnleftbxd">
          79 callsubr
          1616 -1089 117 callsubr
        </CharString>
        <CharString name="heavydnrightbxd">
          -43 callsubr
          -1089 -1616 432 24 callsubr
        </CharString>
        <CharString name="heavyhorzbxd">
          -240 344 rmoveto
          1746 432 -1746 hlineto
          endchar
        </CharString>
        <CharString name="heavyleftbxd">
          -240 106 callsubr
        </CharString>
        <CharString name="heavyleftlightrightbxd">
          0 callsubr
          96 -993 -432 993 96 vlineto
          endchar
        </CharString>
        <CharString name="heavyquaddashhorzbxd">
          989 344 99 callsubr
          -316 78 callgsubr
          -317 78 callgsubr
          -316 78 callgsubr
          endchar
        </CharString>
        <CharString name="heavyquaddashvertbxd">
          417 1136 rmoveto
          88 callgsubr
          -896 vmoveto
          88 callgsubr
          -896 vmoveto
          88 callgsubr
          -896 vmoveto
          88 callgsubr
          endchar
        </CharString>
        <CharString name="heavyrightbxd">
          513 106 callsubr
        </CharString>
        <CharString name="heavytrpldashhorzbxd">
          914 344 rmoveto
          282 432 -282 hlineto
          -422 -432 rmoveto
          282 432 -282 hlineto
          -422 -432 rmoveto
          282 432 -282 hlineto
          endchar
        </CharString>
        <CharString name="heavytrpldashvertbxd">
          417 1015 rmoveto
          432 455 -432 hlineto
          -1138 vmoveto
          432 456 -432 hlineto
          -1138 vmoveto
          432 455 -432 hlineto
          endchar
        </CharString>
        <CharString name="heavyupbxd">
          417 440 rmoveto
          432 1520 -432 hlineto
          endchar
        </CharString>
        <CharString name="heavyuphorzbxd">
          -43 callsubr
          -657 1184 -432 -1184 -657 -432 vlineto
          endchar
        </CharString>
        <CharString name="heavyupleftbxd">
          -240 344 rmoveto
          1089 1616 -432 -1184 -657 hlineto
          endchar
        </CharString>
        <CharString name="heavyuplightdnbxd">
          849 440 rmoveto
          1520 -432 -1520 96 23 callgsubr
          vlineto
          endchar
        </CharString>
        <CharString name="heavyuprightbxd">
          81 callsubr
          hlineto
          endchar
        </CharString>
        <CharString name="heavyvertbxd">
          417 -840 rmoveto
          432 2800 -432 hlineto
          endchar
        </CharString>
        <CharString name="heavyverthorzbxd">
          -43 callsubr
          -657 1184 -432 -1184 -657 87 callsubr
          432 24 callsubr
        </CharString>
        <CharString name="heavyvertleftbxd">
          79 callsubr
          2800 -432 -1184 -657 117 callsubr
        </CharString>
        <CharString name="heavyvertrightbxd">
          -43 callsubr
          -657 1184 -432 -2800 432 24 callsubr
        </CharString>
        <CharString name="hlinebelow">
          99 hmoveto
          -85 callsubr
          917 -1957 -92 callgsubr
          endchar
        </CharString>
        <CharString name="hookabovecmb">
          436 1514 -95 callgsubr
          endchar
        </CharString>
        <CharString name="hookabovecmb.short">
          15 callgsubr
          endchar
        </CharString>
        <CharString name="horncmb">
          633 886 rmoveto
          -12 24 59 -9 50 hhcurveto
          156 98 110 180 hvcurveto
          219 -269 -158 vlineto
          -68 -19 -32 -43 -5 vhcurveto
          -18 -2 -19 4 -19 8 rrcurveto
          endchar
        </CharString>
        <CharString name="hryvnia">
          806 388 rmoveto
          -91 -7 -67 -51 -110 hhcurveto
          -111 -74 56 85 75 56 50 93 9 hvcurveto
          660 154 -1226 -144 115 -19 hlineto
          -36 -41 -22 -64 -65 vvcurveto
          -232 203 -139 338 343 189 147 270 5 vhcurveto
          91 396 rmoveto
          145 -164 19 vlineto
          30 38 17 54 57 vvcurveto
          225 -204 150 -305 -317 -196 -156 -255 -4 vhcurveto
          337 hlineto
          85 4 62 51 100 hhcurveto
          100 60 -50 -82 -71 -42 -42 -85 -13 hvcurveto
          -619 -155 hlineto
          endchar
        </CharString>
        <CharString name="hungarumlaut">
          626 -2 callsubr
        </CharString>
        <CharString name="hungarumlautcmb">
          626 -2 callsubr
        </CharString>
        <CharString name="hungarumlautcmb.short">
          601 1596 3 callgsubr
        </CharString>
        <CharString name="hyphen">
          85 callsubr
        </CharString>
        <CharString name="i">
          647 1314 rmoveto
          -70 callgsubr
          483 -1314 1 callgsubr
        </CharString>
        <CharString name="iacute">
          779 -92 callsubr
          675 -1296 1 callgsubr
        </CharString>
        <CharString name="iacyrillic">
          1121 hmoveto
          -63 callgsubr
        </CharString>
        <CharString name="ibreve">
          1130 hmoveto
          -77 callsubr
          521 1456 rmoveto
          -97 callgsubr
          endchar
        </CharString>
        <CharString name="icaron">
          824 1296 -91 callgsubr
          660 -1296 1 callgsubr
        </CharString>
        <CharString name="icircumflex">
          1130 hmoveto
          -77 callsubr
          333 1632 rmoveto
          -17 callgsubr
        </CharString>
        <CharString name="icyrillic">
          647 1314 rmoveto
          -70 callgsubr
          483 -1314 1 callgsubr
        </CharString>
        <CharString name="idblgrave">
          838 -56 callsubr
          570 -1296 1 callgsubr
        </CharString>
        <CharString name="idieresis">
          1130 hmoveto
          -77 callsubr
          258 1287 rmoveto
          -107 callsubr
          506 hmoveto
          -107 callsubr
          endchar
        </CharString>
        <CharString name="idieresisacute">
          1130 hmoveto
          -77 callsubr
          360 1641 rmoveto
          277 hlineto
          271 351 rlineto
          -324 hlineto
          -326 -745 rmoveto
          -107 callsubr
          506 hmoveto
          -107 callsubr
          endchar
        </CharString>
        <CharString name="idotaccent">
          1130 hmoveto
          -77 callsubr
          511 27 callsubr
          endchar
        </CharString>
        <CharString name="idotbelow">
          647 1314 rmoveto
          -70 callgsubr
          483 -1314 rmoveto
          -77 callsubr
          497 7 callsubr
          endchar
        </CharString>
        <CharString name="iecyrillic">
          -105 callgsubr
          endchar
        </CharString>
        <CharString name="igrave">
          1130 hmoveto
          -77 callsubr
          703 44 callgsubr
          endchar
        </CharString>
        <CharString name="ihookabove">
          1130 hmoveto
          -77 callsubr
          314 1516 -95 callgsubr
          endchar
        </CharString>
        <CharString name="iicyrillic">
          819 671 -38 callgsubr
        </CharString>
        <CharString name="iinvertedbreve">
          1064 -60 callgsubr
          310 -1260 1 callgsubr
        </CharString>
        <CharString name="iishortcyrillic">
          233 1637 -99 callgsubr
          330 -966 -38 callgsubr
        </CharString>
        <CharString name="ij">
          510 hmoveto
          1113 -327 -1113 vlineto
          936 -33 callgsubr
          -605 hmoveto
          -70 callgsubr
          endchar
        </CharString>
        <CharString name="ijacute">
          1117 -92 callsubr
          -285 hmoveto
          292 19 callsubr
          -243 -362 rlineto
          935 -183 rmoveto
          -327 -1085 hlineto
          -90 -46 -46 -91 vhcurveto
          -285 -270 285 hlineto
          342 122 117 328 hvcurveto
          -609 -67 rmoveto
          1113 -327 -1113 vlineto
          endchar
        </CharString>
        <CharString name="imacron">
          1130 hmoveto
          -77 callsubr
          891 22 callsubr
          endchar
        </CharString>
        <CharString name="infinity">
          633 834 rmoveto
          114 -71 -86 48 -98 hhcurveto
          -177 -128 -156 -234 -234 128 -156 177 88 87 50 115 80 hvcurveto
          -115 80 87 -50 88 hhcurveto
          177 128 156 234 234 -128 156 -177 -98 -86 -48 -114 -71 hvcurveto
          313 -228 rmoveto
          -71 -46 -62 -42 -39 -37 35 98 -37 vhcurveto
          98 37 37 35 39 hhcurveto
          42 46 -62 -71 hvcurveto
          -626 hmoveto
          71 46 62 42 39 37 -35 -98 37 vhcurveto
          -98 -37 -37 -35 -39 hhcurveto
          -42 -46 62 71 hvcurveto
          endchar
        </CharString>
        <CharString name="integral">
          313 -301 rmoveto
          234 141 119 223 37 hvcurveto
          171 1063 rlineto
          92 16 44 43 85 hhcurveto
          45 23 -10 -9 19 hvcurveto
          52 278 rlineto
          24 -56 -79 17 -89 hhcurveto
          -235 -141 -120 -223 -36 hvcurveto
          -173 -1058 rlineto
          -97 -15 -45 -42 -84 hhcurveto
          -45 -23 9 10 -19 hvcurveto
          -51 -278 rlineto
          -24 56 78 -17 90 hhcurveto
          endchar
        </CharString>
        <CharString name="invertedbrevecmb">
          1050 -60 callgsubr
          endchar
        </CharString>
        <CharString name="invertedbrevecmb.short">
          451 -56 callgsubr
          endchar
        </CharString>
        <CharString name="iocyrillic">
          -105 callgsubr
          -771 959 rmoveto
          -107 callsubr
          506 hmoveto
          -107 callsubr
          endchar
        </CharString>
        <CharString name="iogonek">
          647 1314 rmoveto
          -70 callgsubr
          483 -1050 rmoveto
          -313 849 -652 -264 311 -585 -340 -264 758 hlineto
          -117 -76 -55 -87 -108 vvcurveto
          -129 91 -79 149 72 57 7 14 39 vhcurveto
          195 vlineto
          -6 -22 -22 -3 -30 hhcurveto
          -61 -35 31 56 69 51 56 119 60 hvcurveto
          endchar
        </CharString>
        <CharString name="iotadieresisgreek">
          -39 callsubr
          -537 1281 rmoveto
          -107 callsubr
          506 hmoveto
          -107 callsubr
          endchar
        </CharString>
        <CharString name="iotadieresistonosgreek">
          -39 callsubr
          -442 1270 -51 callsubr
        </CharString>
        <CharString name="iotagreek">
          -39 callsubr
          endchar
        </CharString>
        <CharString name="iotatonosgreek">
          -39 callsubr
          -427 1270 -6 callgsubr
          endchar
        </CharString>
        <CharString name="isuperior">
          1034 497 rmoveto
          235 -249 711 -548 -235 247 -476 -271 -235 vlineto
          420 1065 rmoveto
          135 74 56 101 101 -74 56 -135 -135 -74 -56 -101 -101 74 -56 135 hvcurveto
          endchar
        </CharString>
        <CharString name="itilde">
          1130 hmoveto
          -77 callsubr
          386 1405 -104 callsubr
          endchar
        </CharString>
        <CharString name="itildebelow">
          647 1314 rmoveto
          -70 callgsubr
          483 -1314 rmoveto
          -77 callsubr
          373 -337 -104 callsubr
          endchar
        </CharString>
        <CharString name="iucyrillic">
          834 244 -76 callgsubr
        </CharString>
        <CharString name="j">
          -26 callgsubr
          -185 43 callsubr
        </CharString>
        <CharString name="jcircumflex">
          -26 callgsubr
          -347 1565 rmoveto
          -17 callgsubr
        </CharString>
        <CharString name="jecyrillic">
          -26 callgsubr
          -185 43 callsubr
        </CharString>
        <CharString name="k">
          1259 hmoveto
          -423 636 -38 callsubr
          349 hlineto
          45 callsubr
          endchar
        </CharString>
        <CharString name="kacute">
          787 2009 rmoveto
          -362 hlineto
          -258 68 callgsubr
          776 -1683 rmoveto
          -423 636 -38 callsubr
          349 hlineto
          45 callsubr
          endchar
        </CharString>
        <CharString name="kacyrillic">
          483 1113 26 callgsubr
        </CharString>
        <CharString name="kappagreek">
          456 hmoveto
          272 vlineto
          121 139 255 -411 rlineto
          367 hlineto
          -390 621 135 153 rlineto
          69 61 33 28 62 hhcurveto
          18 27 -4 -5 17 hvcurveto
          248 vlineto
          11 -37 -50 9 -62 hhcurveto
          -132 -72 -52 -144 -119 hvcurveto
          -215 -263 rlineto
          -19 442 -331 -1113 hlineto
          endchar
        </CharString>
        <CharString name="kcaron">
          493 1672 rmoveto
          275 350 56 callsubr
          -132 -190 rlineto
          -20 hlineto
          -132 190 56 callsubr
          275 -350 rlineto
          1096 -1672 rmoveto
          -423 636 -38 callsubr
          349 hlineto
          45 callsubr
          endchar
        </CharString>
        <CharString name="kcommaaccent">
          354 -494 rmoveto
          306 hlineto
          192 350 rlineto
          -350 hlineto
          334 780 rmoveto
          -38 callsubr
          349 hlineto
          45 callsubr
          407 hlineto
          endchar
        </CharString>
        <CharString name="kdotbelow">
          501 349 rmoveto
          45 callsubr
          407 hlineto
          -423 636 -38 callsubr
          hlineto
          183 71 callsubr
          endchar
        </CharString>
        <CharString name="kip">
          1301 hmoveto
          -323 605 rlineto
          19 259 241 -272 19 vlineto
          318 559 rlineto
          -387 hlineto
          -330 -603 rlineto
          -58 603 -367 -578 -155 -241 155 -624 367 650 65 hlineto
          303 -650 rlineto
          endchar
        </CharString>
        <CharString name="kjecyrillic">
          742 -92 callsubr
          65 -183 26 callgsubr
        </CharString>
        <CharString name="klinebelow">
          501 349 rmoveto
          45 callsubr
          407 hlineto
          -423 636 -38 callsubr
          hlineto
          -179 115 callgsubr
          endchar
        </CharString>
        <CharString name="l">
          1130 hmoveto
          63 callgsubr
        </CharString>
        <CharString name="lacute">
          796 1713 rmoveto
          292 19 callsubr
          -243 -362 rlineto
          658 -1713 61 callsubr
        </CharString>
        <CharString name="lambdagreek">
          387 hmoveto
          213 615 rlineto
          19 hlineto
          137 -413 rlineto
          -156 52 71 -56 173 hhcurveto
          64 72 8 12 34 hvcurveto
          248 vlineto
          -3 -11 -28 -6 -23 hhcurveto
          -68 -23 26 94 -35 hvcurveto
          -282 761 rlineto
          339 -126 -89 87 -231 hhcurveto
          -47 -68 -7 -13 -41 hvcurveto
          -248 vlineto
          7 27 20 2 18 hhcurveto
          120 54 -39 -131 49 hvcurveto
          30 -80 -444 -1047 rlineto
          endchar
        </CharString>
        <CharString name="lari">
          505 786 rmoveto
          111 413 hlineto
          4 15 14 2 13 hhcurveto
          19 12 -2 -4 11 hvcurveto
          -413 111 377 vlineto
          93 -61 47 -127 -189 vvcurveto
          275 hlineto
          336 -155 254 -252 75 vhcurveto
          134 -113 -113 vlineto
          2 -21 -8 0 -19 hhcurveto
          -15 -7 0 -2 -25 hvcurveto
          113 -114 -131 vlineto
          -263 -68 -166 -234 -304 vvcurveto
          -248 103 -201 187 -116 vhcurveto
          -14 -221 -269 968 284 -259 vlineto
          -295 -184 201 322 178 47 121 91 58 hvcurveto
          endchar
        </CharString>
        <CharString name="lcaron">
          972 1530 rmoveto
          -510 244 vlineto
          50 510 rlineto
          -136 -1530 61 callsubr
        </CharString>
        <CharString name="lcircumflexbelow">
          1130 hmoveto
          -52 callgsubr
          320 -156 rmoveto
          -17 callgsubr
        </CharString>
</ttFont>
